<?xml version="1.0" encoding="UTF-8"?>
<!--
  Space Agency Race - Game Board, PLAYTEST PRINT EDITION (low ink)
  Derived from board_v2.svg (rules v0.4): same zones, node bands, TW dial,
  round track 1-8, VP track 0-50, CR track 0-30.

  Differences vs board_v2.svg (screen/TTS version):
    - White background, light zone tints, dark line work: fraction of the ink.
    - No filters/glows/gradients: predictable output on any printer.
    - True 19 x 13 in canvas (2850 x 1950 units @ 150/in) for 13x19" paper,
      landscape. Print at 100% scale / "actual size"; keep >= 0.25 in margins
      (all game content already sits inside that safe area).

  Physical component sizes at 100% scale:
    - orbit bands: 0.59-1.33 in wide  (fits 8-12 mm cubes, standard meeples)
    - Sun Orbit band: 1.9 in wide
    - TW dial spaces: 0.53 in diameter
    - round track spaces: 0.35 in diameter
    - VP track spaces: 0.33 in diameter (8-10 mm cubes)
    - CR track spaces: 0.48 in diameter (10-12 mm cubes / discs)

  This file is generated art; edit coordinates directly or regenerate.
-->
<svg xmlns="http://www.w3.org/2000/svg" width="19in" height="13in" viewBox="0 0 2850 1950">
<defs>
  <clipPath id="map-area"><rect x="0" y="0" width="2850" height="1560"/></clipPath>
  <clipPath id="earth-clip"><circle cx="190" cy="1040" r="55"/></clipPath>
  <clipPath id="moon-clip"><circle cx="300" cy="240" r="42"/></clipPath>
  <clipPath id="mars-clip"><circle cx="2660" cy="1040" r="55"/></clipPath>
</defs>
<rect width="2850" height="1950" fill="#ffffff"/>
<!-- stars: small gray dots + a few sparkles, near-zero ink -->
<g fill="#97a5ba">
  <circle cx="797" cy="353" r="1.6" opacity="0.77"/>
  <circle cx="640" cy="770" r="1.6" opacity="0.72"/>
  <circle cx="2028" cy="1059" r="2.5" opacity="0.59"/>
  <circle cx="1674" cy="1219" r="1.6" opacity="0.8"/>
  <circle cx="475" cy="648" r="2.1" opacity="0.56"/>
  <circle cx="2701" cy="521" r="1.6" opacity="0.65"/>
  <circle cx="1032" cy="532" r="2.1" opacity="0.82"/>
  <circle cx="2066" cy="815" r="2.5" opacity="0.53"/>
  <circle cx="848" cy="952" r="2.1" opacity="0.73"/>
  <circle cx="1996" cy="92" r="1.8" opacity="0.81"/>
  <circle cx="2779" cy="1286" r="1.6" opacity="0.65"/>
  <circle cx="484" cy="548" r="2.1" opacity="0.78"/>
  <circle cx="1802" cy="812" r="1.8" opacity="0.57"/>
  <circle cx="1089" cy="1485" r="1.8" opacity="0.77"/>
  <circle cx="2382" cy="1169" r="1.8" opacity="0.83"/>
  <circle cx="2276" cy="616" r="1.6" opacity="0.58"/>
  <circle cx="2661" cy="1318" r="2.1" opacity="0.59"/>
  <circle cx="1824" cy="235" r="1.8" opacity="0.6"/>
  <circle cx="1661" cy="1349" r="2.5" opacity="0.64"/>
  <circle cx="2813" cy="228" r="2.5" opacity="0.54"/>
  <circle cx="161" cy="186" r="1.8" opacity="0.82"/>
  <circle cx="1243" cy="694" r="2.1" opacity="0.89"/>
  <circle cx="2156" cy="773" r="1.6" opacity="0.85"/>
  <circle cx="1729" cy="250" r="1.8" opacity="0.72"/>
  <circle cx="32" cy="502" r="1.6" opacity="0.54"/>
  <circle cx="2281" cy="377" r="1.8" opacity="0.85"/>
  <circle cx="2152" cy="1154" r="1.8" opacity="0.76"/>
  <circle cx="2672" cy="268" r="2.5" opacity="0.89"/>
  <circle cx="2622" cy="1139" r="1.8" opacity="0.79"/>
  <circle cx="1143" cy="1015" r="2.1" opacity="0.68"/>
  <circle cx="657" cy="523" r="1.8" opacity="0.74"/>
  <circle cx="50" cy="1069" r="1.6" opacity="0.59"/>
  <circle cx="2556" cy="1293" r="1.6" opacity="0.71"/>
  <circle cx="807" cy="740" r="1.8" opacity="0.79"/>
  <circle cx="2492" cy="874" r="1.8" opacity="0.81"/>
  <circle cx="300" cy="660" r="2.5" opacity="0.66"/>
  <circle cx="1853" cy="978" r="1.6" opacity="0.66"/>
  <circle cx="977" cy="1296" r="1.8" opacity="0.58"/>
  <circle cx="542" cy="707" r="1.6" opacity="0.68"/>
  <circle cx="171" cy="1499" r="1.6" opacity="0.89"/>
  <circle cx="626" cy="616" r="1.6" opacity="0.57"/>
  <circle cx="36" cy="600" r="2.5" opacity="0.61"/>
  <circle cx="2216" cy="1001" r="2.5" opacity="0.56"/>
  <circle cx="858" cy="1454" r="1.6" opacity="0.8"/>
  <circle cx="189" cy="886" r="1.8" opacity="0.52"/>
  <circle cx="221" cy="124" r="1.8" opacity="0.66"/>
  <circle cx="2657" cy="865" r="1.6" opacity="0.75"/>
  <circle cx="1200" cy="886" r="2.1" opacity="0.87"/>
  <circle cx="600" cy="1081" r="1.8" opacity="0.61"/>
  <circle cx="395" cy="977" r="2.5" opacity="0.63"/>
  <circle cx="2128" cy="131" r="2.5" opacity="0.75"/>
  <circle cx="1601" cy="172" r="1.8" opacity="0.7"/>
  <circle cx="400" cy="539" r="1.6" opacity="0.85"/>
  <circle cx="1061" cy="257" r="2.1" opacity="0.74"/>
  <circle cx="2784" cy="989" r="1.6" opacity="0.77"/>
  <circle cx="319" cy="1320" r="2.1" opacity="0.55"/>
  <circle cx="329" cy="841" r="2.1" opacity="0.61"/>
  <circle cx="1948" cy="1283" r="2.5" opacity="0.6"/>
  <circle cx="1800" cy="1248" r="1.6" opacity="0.5"/>
  <circle cx="761" cy="1118" r="2.5" opacity="0.72"/>
  <circle cx="342" cy="1419" r="1.8" opacity="0.72"/>
  <circle cx="2359" cy="884" r="1.8" opacity="0.67"/>
  <circle cx="147" cy="562" r="1.6" opacity="0.86"/>
  <circle cx="616" cy="392" r="1.6" opacity="0.64"/>
  <circle cx="2747" cy="1130" r="1.8" opacity="0.85"/>
  <circle cx="2085" cy="514" r="2.5" opacity="0.82"/>
  <circle cx="2441" cy="1221" r="2.1" opacity="0.56"/>
  <circle cx="1987" cy="589" r="1.6" opacity="0.84"/>
  <circle cx="651" cy="1229" r="2.5" opacity="0.64"/>
  <circle cx="2319" cy="1310" r="1.8" opacity="0.51"/>
  <circle cx="569" cy="509" r="1.6" opacity="0.89"/>
  <circle cx="528" cy="1445" r="2.1" opacity="0.52"/>
  <circle cx="1694" cy="534" r="2.1" opacity="0.67"/>
  <circle cx="2540" cy="305" r="1.6" opacity="0.78"/>
  <circle cx="35" cy="1390" r="1.8" opacity="0.65"/>
  <circle cx="951" cy="487" r="1.6" opacity="0.79"/>
  <circle cx="868" cy="481" r="2.5" opacity="0.63"/>
  <circle cx="1975" cy="842" r="1.8" opacity="0.67"/>
  <circle cx="2549" cy="933" r="2.1" opacity="0.66"/>
  <circle cx="2356" cy="473" r="1.8" opacity="0.67"/>
</g>
<g stroke="#a7b3c4" stroke-width="1.3" stroke-linecap="round" opacity="0.8">
  <line x1="713" y1="140" x2="727" y2="140"/><line x1="720" y1="133" x2="720" y2="147"/>
  <line x1="1923" y1="330" x2="1937" y2="330"/><line x1="1930" y1="323" x2="1930" y2="337"/>
  <line x1="973" y1="640" x2="987" y2="640"/><line x1="980" y1="633" x2="980" y2="647"/>
  <line x1="2263" y1="560" x2="2277" y2="560"/><line x1="2270" y1="553" x2="2270" y2="567"/>
  <line x1="753" y1="1240" x2="767" y2="1240"/><line x1="760" y1="1233" x2="760" y2="1247"/>
  <line x1="1983" y1="1300" x2="1997" y2="1300"/><line x1="1990" y1="1293" x2="1990" y2="1307"/>
</g>
<g clip-path="url(#map-area)">
  <!-- zone tints: light annular bands (alternating with white) -->
  <circle cx="190" cy="1040" r="113.5" fill="none" stroke="#dcebf8" stroke-width="117"/>
  <circle cx="190" cy="1040" r="82.5" fill="none" stroke="#cde3f4" stroke-width="55"/>
  <circle cx="190" cy="1040" r="430" fill="none" stroke="#fdf3d2" stroke-width="200"/>
  <circle cx="300" cy="240" r="86" fill="none" stroke="#e9edf3" stroke-width="88"/>
  <circle cx="300" cy="240" r="182.5" fill="none" stroke="#f3f5f9" stroke-width="105"/>
  <circle cx="2660" cy="1040" r="113.5" fill="none" stroke="#fbe4d8" stroke-width="117"/>
  <circle cx="2660" cy="1040" r="430" fill="none" stroke="#fcebdb" stroke-width="200"/>
  <!-- sun orbit / transfer window band -->
  <rect x="1280" y="0" width="290" height="1560" rx="24" fill="#fdeef5"/>
  <line x1="1280" y1="0" x2="1280" y2="1560" stroke="#c2418a" stroke-width="2.5" stroke-dasharray="14,10" opacity="0.8"/>
  <line x1="1570" y1="0" x2="1570" y2="1560" stroke="#c2418a" stroke-width="2.5" stroke-dasharray="14,10" opacity="0.8"/>
  <!-- zone boundary lines -->
  <g fill="none" stroke="#3a4a66" stroke-width="2.5">
    <circle cx="190" cy="1040" r="172"/>
    <circle cx="190" cy="1040" r="330"/>
    <circle cx="190" cy="1040" r="530"/>
    <circle cx="300" cy="240" r="130"/>
    <circle cx="300" cy="240" r="235"/>
    <circle cx="2660" cy="1040" r="172"/>
    <circle cx="2660" cy="1040" r="330"/>
    <circle cx="2660" cy="1040" r="530"/>
  </g>
  <g fill="none" stroke="#3a4a66" stroke-width="2.5" stroke-dasharray="16,10" opacity="0.85">
    <circle cx="190" cy="1040" r="1020"/>
    <circle cx="2660" cy="1040" r="870"/>
  </g>
  <circle cx="190" cy="1040" r="530" fill="none" stroke="#c9a227" stroke-width="4" opacity="0.9"/>
  <!-- EARTH -->
  <circle cx="190" cy="1040" r="55" fill="#d4e9f7" stroke="#1f4e79" stroke-width="3"/>
  <g clip-path="url(#earth-clip)">
    <ellipse cx="168" cy="1015" rx="18" ry="14" fill="#8fca9a"/>
    <ellipse cx="162" cy="1008" rx="10" ry="7" fill="#9ed4a8"/>
    <ellipse cx="174" cy="1048" rx="9" ry="16" fill="#84c390"/>
    <ellipse cx="198" cy="1018" rx="7" ry="6" fill="#98d0a2"/>
    <ellipse cx="202" cy="1038" rx="10" ry="18" fill="#7fbf8b"/>
    <ellipse cx="218" cy="1012" rx="16" ry="11" fill="#8ac795"/>
    <ellipse cx="226" cy="1020" rx="10" ry="8" fill="#98d0a2"/>
    <ellipse cx="230" cy="1052" rx="8" ry="6" fill="#9ed4a8"/>
    <ellipse cx="190" cy="987" rx="26" ry="6" fill="#ffffff" opacity="0.9"/>
    <ellipse cx="190" cy="1093" rx="20" ry="5" fill="#ffffff" opacity="0.8"/>
  </g>
  <circle cx="190" cy="1040" r="52" fill="none" stroke="#a8d4ee" stroke-width="4" opacity="0.7"/>
  <!-- MOON -->
  <circle cx="300" cy="240" r="42" fill="#e9ecf1" stroke="#55606f" stroke-width="2.5"/>
  <g clip-path="url(#moon-clip)">
    <ellipse cx="290" cy="230" rx="14" ry="12" fill="#ccd2dc" opacity="0.8"/>
    <ellipse cx="310" cy="225" rx="8" ry="10" fill="#ccd2dc" opacity="0.8"/>
    <ellipse cx="305" cy="248" rx="12" ry="8" fill="#ccd2dc" opacity="0.8"/>
    <ellipse cx="320" cy="238" rx="6" ry="7" fill="#ccd2dc" opacity="0.8"/>
    <ellipse cx="285" cy="252" rx="9" ry="6" fill="#ccd2dc" opacity="0.8"/>
    <circle cx="292" cy="234" r="6" fill="#dde2ea"/>
    <circle cx="292" cy="234" r="6" fill="none" stroke="#8a94a4" stroke-width="0.8"/>
    <circle cx="312" cy="250" r="5" fill="#dde2ea"/>
    <circle cx="312" cy="250" r="5" fill="none" stroke="#8a94a4" stroke-width="0.8"/>
    <circle cx="285" cy="245" r="3" fill="#dde2ea"/>
    <circle cx="285" cy="245" r="3" fill="none" stroke="#8a94a4" stroke-width="0.8"/>
    <circle cx="318" cy="228" r="2.5" fill="#dde2ea"/>
    <circle cx="318" cy="228" r="2.5" fill="none" stroke="#8a94a4" stroke-width="0.8"/>
    <circle cx="298" cy="218" r="2" fill="#dde2ea"/>
    <circle cx="298" cy="218" r="2" fill="none" stroke="#8a94a4" stroke-width="0.8"/>
    <circle cx="302" cy="262" r="4" fill="#f2f4f7" stroke="#8a94a4" stroke-width="1"/>
  </g>
  <!-- MARS -->
  <circle cx="2660" cy="1040" r="55" fill="#f6cdb2" stroke="#8c3415" stroke-width="3"/>
  <g clip-path="url(#mars-clip)">
    <ellipse cx="2648" cy="1035" rx="18" ry="12" fill="#dd9268" opacity="0.55"/>
    <ellipse cx="2672" cy="1050" rx="14" ry="10" fill="#dd9268" opacity="0.5"/>
    <ellipse cx="2650" cy="1055" rx="10" ry="8" fill="#d68a5c" opacity="0.5"/>
    <ellipse cx="2660" cy="1065" rx="30" ry="12" fill="#cf7d50" opacity="0.35"/>
    <line x1="2635" y1="1036" x2="2675" y2="1040" stroke="#a04a28" stroke-width="2.5" stroke-linecap="round" opacity="0.7"/>
    <circle cx="2640" cy="1020" r="8" fill="#f3b98e" opacity="0.8"/>
    <circle cx="2640" cy="1020" r="3" fill="#c97a4a" opacity="0.8"/>
    <ellipse cx="2660" cy="987" rx="20" ry="5" fill="#ffffff" opacity="0.95"/>
    <ellipse cx="2660" cy="1093" rx="14" ry="4" fill="#ffffff" opacity="0.9"/>
  </g>
  <!-- sun glyph -->
  <g stroke="#d97706" stroke-width="3" stroke-linecap="round">
    <line x1="1469.0" y1="278.0" x2="1485.0" y2="278.0"/>
    <line x1="1463.1" y1="300.0" x2="1477.0" y2="308.0"/>
    <line x1="1447.0" y1="316.1" x2="1455.0" y2="330.0"/>
    <line x1="1425.0" y1="322.0" x2="1425.0" y2="338.0"/>
    <line x1="1403.0" y1="316.1" x2="1395.0" y2="330.0"/>
    <line x1="1386.9" y1="300.0" x2="1373.0" y2="308.0"/>
    <line x1="1381.0" y1="278.0" x2="1365.0" y2="278.0"/>
    <line x1="1386.9" y1="256.0" x2="1373.0" y2="248.0"/>
    <line x1="1403.0" y1="239.9" x2="1395.0" y2="226.0"/>
    <line x1="1425.0" y1="234.0" x2="1425.0" y2="218.0"/>
    <line x1="1447.0" y1="239.9" x2="1455.0" y2="226.0"/>
    <line x1="1463.1" y1="256.0" x2="1477.0" y2="248.0"/>
  </g>
  <circle cx="1425" cy="278" r="34" fill="#fff3c4" stroke="#d97706" stroke-width="3.5"/>
  <!-- planet + zone labels -->
  <text x="190" y="1046" text-anchor="middle" font-family="Arial,sans-serif" font-size="20" font-weight="bold" fill="#0e3a5c">EARTH</text>
  <text x="300" y="245" text-anchor="middle" font-family="Arial,sans-serif" font-size="12" font-weight="bold" fill="#333d4c">MOON</text>
  <text x="2660" y="1046" text-anchor="middle" font-family="Arial,sans-serif" font-size="20" font-weight="bold" fill="#6b250c">MARS</text>
  <text x="256" y="1048" font-family="Arial,sans-serif" font-size="16" fill="#17456e" font-weight="bold">SUB-ORBITAL</text>
  <text x="256" y="1070" font-family="Arial,sans-serif" font-size="11" font-style="italic" fill="#3b82a8">atmosphere</text>
  <text x="415" y="1048" font-family="Arial,sans-serif" font-size="19" fill="#17456e" font-weight="bold">LEO</text>
  <text x="540" y="1048" font-family="Arial,sans-serif" font-size="18" fill="#8a6408" font-weight="bold">HIGH ORBIT</text>
  <text x="540" y="1070" font-family="Arial,sans-serif" font-size="12" fill="#8a6408" opacity="0.9" font-weight="bold">GEO &#183; STATION NODE</text>
  <text x="1195" y="1048" text-anchor="end" font-family="Arial,sans-serif" font-size="20" fill="#17456e" font-weight="bold">EARTH ZOI</text>
  <text x="1195" y="1070" text-anchor="end" font-family="Arial,sans-serif" font-size="12" fill="#17456e" opacity="0.85">zone of influence</text>
  <text x="300" y="330" text-anchor="middle" font-family="Arial,sans-serif" font-size="16" fill="#475569" font-weight="bold">SUB-ORBITAL</text>
  <text x="300" y="410" text-anchor="middle" font-family="Arial,sans-serif" font-size="16" fill="#475569" font-weight="bold">MOON ORBIT</text>
  <text x="300" y="436" text-anchor="middle" font-family="Arial,sans-serif" font-size="13" fill="#8a6408" font-weight="bold">first agency: +2 VP</text>
  <text x="300" y="494" text-anchor="middle" font-family="Arial,sans-serif" font-size="11" font-style="italic" fill="#64748b">no atmosphere &#8212; propulsive landing only</text>
  <text x="2600" y="1048" text-anchor="end" font-family="Arial,sans-serif" font-size="16" fill="#8c3415" font-weight="bold">SUB-ORBITAL</text>
  <text x="2600" y="1070" text-anchor="end" font-family="Arial,sans-serif" font-size="11" font-style="italic" fill="#b45309">thin atmosphere</text>
  <text x="2410" y="1048" text-anchor="end" font-family="Arial,sans-serif" font-size="17" fill="#8c3415" font-weight="bold">LOW ORBIT</text>
  <text x="2225" y="1048" text-anchor="end" font-family="Arial,sans-serif" font-size="18" fill="#8c3415" font-weight="bold">HIGH ORBIT</text>
  <text x="2035" y="1048" text-anchor="end" font-family="Arial,sans-serif" font-size="19" fill="#8c3415" font-weight="bold">MARS ZOI</text>
  <text x="2035" y="1070" text-anchor="end" font-family="Arial,sans-serif" font-size="12" fill="#8c3415" opacity="0.85">zone of influence</text>
  <text x="2035" y="1094" text-anchor="end" font-family="Arial,sans-serif" font-size="13" fill="#8a6408" font-weight="bold">first agency here or beyond: +4 VP</text>
  <text x="1150" y="205" text-anchor="middle" font-family="Arial,sans-serif" font-size="22" fill="#b45309" font-weight="bold">SUN ORBIT</text>
  <text x="1700" y="205" text-anchor="middle" font-family="Arial,sans-serif" font-size="22" fill="#b45309" font-weight="bold">SUN ORBIT</text>
  <text x="1425" y="1508" text-anchor="middle" font-family="Arial,sans-serif" font-size="16" fill="#9d2f6d" font-weight="bold">SUN ORBIT is one node &#8212; crossing to/from MARS ZOI costs the current TW</text>
  <!-- Transfer Window cost dial: TW 0 (top) .. TW 5 (bottom) -->
  <g font-family="Arial,sans-serif" font-weight="bold" text-anchor="middle" dominant-baseline="middle">
    <text x="1425" y="470" font-size="26" fill="#a3286e" letter-spacing="2">TRANSFER WINDOW</text>
    <text x="1425" y="502" font-size="14" fill="#a3286e" opacity="0.85">crossing cost</text>
    <circle cx="1425" cy="590" r="42" fill="#fff8e1" stroke="#c9a227" stroke-width="4"/> <text x="1425" y="592" font-size="26" fill="#8a6408">0</text>
    <text x="1483" y="592" text-anchor="start" font-size="13" fill="#8a6408" opacity="0.9">free!</text>
    <circle cx="1425" cy="730" r="40" fill="#ffffff" stroke="#c2418a" stroke-width="3"/> <text x="1425" y="732" font-size="24" fill="#a3286e">1</text>
    <circle cx="1425" cy="870" r="40" fill="#ffffff" stroke="#c2418a" stroke-width="3"/> <text x="1425" y="872" font-size="24" fill="#a3286e">2</text>
    <circle cx="1425" cy="1010" r="40" fill="#ffffff" stroke="#c2418a" stroke-width="3"/> <text x="1425" y="1012" font-size="24" fill="#a3286e">3</text>
    <circle cx="1425" cy="1150" r="40" fill="#ffffff" stroke="#c2418a" stroke-width="3"/> <text x="1425" y="1152" font-size="24" fill="#a3286e">4</text>
    <circle cx="1425" cy="1290" r="40" fill="#fdecea" stroke="#c0392b" stroke-width="3.5"/> <text x="1425" y="1292" font-size="24" fill="#b03a2e">5</text>
    <text x="1350" y="1012" text-anchor="end" font-size="14" fill="#8a6408">START</text>
    <polygon points="1358,1000 1358,1020 1377,1010" fill="#c9a227"/>
    <text x="1425" y="1368" font-size="18" fill="#a3286e" letter-spacing="1">CYCLE  3&#8594;2&#8594;1&#8594;0&#8594;1&#8594;2&#8594;3&#8594;4</text>
    <text x="1425" y="1396" font-size="13" fill="#a3286e" opacity="0.85">advance one step each Planning &#183; repeat</text>
  </g>
  <text x="370" y="1462" font-family="Arial,sans-serif" font-size="36" fill="#7fb99e" opacity="0.5" font-weight="bold" letter-spacing="4">EARTH SYSTEM</text>
  <text x="545" y="182" font-family="Arial,sans-serif" font-size="30" fill="#9fb0c6" opacity="0.55" font-weight="bold" letter-spacing="3">LUNAR SYSTEM</text>
  <text x="2020" y="1462" font-family="Arial,sans-serif" font-size="36" fill="#e0a184" opacity="0.55" font-weight="bold" letter-spacing="4">MARS SYSTEM</text>
</g>
<!-- Round track (1-8) -->
<g font-family="Arial,sans-serif" font-weight="bold" text-anchor="middle" dominant-baseline="middle">
  <text x="2246" y="92" text-anchor="end" font-size="20" fill="#5a6b85" letter-spacing="2">ROUND</text>
  <circle cx="2290" cy="88" r="26" fill="#ffffff" stroke="#64748b" stroke-width="2.5"/> <text x="2290" y="90" font-size="18" fill="#1f2a44">1</text>
  <circle cx="2352" cy="88" r="26" fill="#ffffff" stroke="#64748b" stroke-width="2.5"/> <text x="2352" y="90" font-size="18" fill="#1f2a44">2</text>
  <circle cx="2414" cy="88" r="26" fill="#ffffff" stroke="#64748b" stroke-width="2.5"/> <text x="2414" y="90" font-size="18" fill="#1f2a44">3</text>
  <circle cx="2476" cy="88" r="26" fill="#ffffff" stroke="#64748b" stroke-width="2.5"/> <text x="2476" y="90" font-size="18" fill="#1f2a44">4</text>
  <circle cx="2538" cy="88" r="26" fill="#ffffff" stroke="#64748b" stroke-width="2.5"/> <text x="2538" y="90" font-size="18" fill="#1f2a44">5</text>
  <circle cx="2600" cy="88" r="26" fill="#ffffff" stroke="#64748b" stroke-width="2.5"/> <text x="2600" y="90" font-size="18" fill="#1f2a44">6</text>
  <circle cx="2662" cy="88" r="26" fill="#ffffff" stroke="#64748b" stroke-width="2.5"/> <text x="2662" y="90" font-size="18" fill="#1f2a44">7</text>
  <circle cx="2724" cy="88" r="27" fill="#fff8e1" stroke="#c9a227" stroke-width="3"/> <text x="2724" y="90" font-size="18" fill="#8a6408">8</text>
  <text x="2507" y="140" font-size="13" fill="#5a6b85">Planning &#183; Action &#183; Maintenance</text>
  <text x="2724" y="140" font-size="11" fill="#8a6408" opacity="0.9">final</text>
</g>
<!-- track section panels -->
<line x1="0" y1="1560" x2="2850" y2="1560" stroke="#3a4a66" stroke-width="2" stroke-dasharray="6,4"/>
<rect x="0" y="1560" width="2850" height="195" fill="#fbf6e8"/>
<line x1="0" y1="1755" x2="2850" y2="1755" stroke="#7ba888" stroke-width="1.5" stroke-dasharray="6,4"/>
<rect x="0" y="1755" width="2850" height="195" fill="#eef7ef"/>
<text x="48" y="1668" font-family="Arial,sans-serif" font-size="28" fill="#8a6408" font-weight="bold" letter-spacing="1">VP</text>
<text x="48" y="1868" font-family="Arial,sans-serif" font-size="28" fill="#1f8a4c" font-weight="bold" letter-spacing="1">CR</text>
<text x="44" y="1786" font-family="Arial,sans-serif" font-size="13" fill="#1f8a4c">start by seat: 5 &#183; 6 &#183; 7 &#183; 8</text>
<!-- title panel -->
<g>
  <rect x="975" y="24" width="900" height="110" rx="5" fill="#ffffff" opacity="0.95"/>
  <rect x="975" y="24" width="900" height="110" rx="5" fill="none" stroke="#9a7b0a" stroke-width="2.5"/>
  <rect x="983" y="32" width="884" height="94" rx="3" fill="none" stroke="#c9a227" stroke-width="0.8" opacity="0.6"/>
  <g stroke="#c9a227" stroke-width="1.5" opacity="0.8">
    <line x1="975" y1="44" x2="989" y2="44"/><line x1="995" y1="24" x2="995" y2="38"/>
    <line x1="1861" y1="44" x2="1875" y2="44"/><line x1="1855" y1="24" x2="1855" y2="38"/>
    <line x1="975" y1="114" x2="989" y2="114"/><line x1="995" y1="120" x2="995" y2="134"/>
    <line x1="1861" y1="114" x2="1875" y2="114"/><line x1="1855" y1="120" x2="1855" y2="134"/>
  </g>
  <line x1="1210" y1="90" x2="1640" y2="90" stroke="#9a7b0a" stroke-width="1" opacity="0.5"/>
  <rect x="1421" y="86" width="8" height="8" rx="1" fill="#c9a227" opacity="0.7" transform="rotate(45 1425 90)"/>
  <line x1="989" y1="79" x2="1029" y2="79" stroke="#c9a227" stroke-width="1" opacity="0.5"/>
  <line x1="1821" y1="79" x2="1861" y2="79" stroke="#c9a227" stroke-width="1" opacity="0.5"/>
</g>
<text x="1425" y="76" text-anchor="middle" font-family="Arial,sans-serif" font-size="46" font-weight="bold" fill="#9a7b0a" letter-spacing="6">SPACE AGENCY RACE</text>
<text x="1425" y="120" text-anchor="middle" font-family="Arial,sans-serif" font-size="20" fill="#5a6b85" letter-spacing="3">ORBITAL MAP &#183; PLAYTEST EDITION</text>
<!-- VP TRACK: 51 spaces 0-50, y=1655, x: 140 -> 2780, step 52.8 -->
<g font-family="Arial,sans-serif" font-weight="bold" text-anchor="middle" dominant-baseline="middle">
  <circle cx="140" cy="1655" r="25" fill="#ffffff" stroke="#b08a2a" stroke-width="2.2"/> <text x="140" y="1657" font-size="16" fill="#1f2a44">0</text>
  <circle cx="192.8" cy="1655" r="25" fill="#ffffff" stroke="#b08a2a" stroke-width="2.2"/> <text x="192.8" y="1657" font-size="16" fill="#1f2a44">1</text>
  <circle cx="245.6" cy="1655" r="25" fill="#ffffff" stroke="#b08a2a" stroke-width="2.2"/> <text x="245.6" y="1657" font-size="16" fill="#1f2a44">2</text>
  <circle cx="298.4" cy="1655" r="25" fill="#ffffff" stroke="#b08a2a" stroke-width="2.2"/> <text x="298.4" y="1657" font-size="16" fill="#1f2a44">3</text>
  <circle cx="351.2" cy="1655" r="25" fill="#ffffff" stroke="#b08a2a" stroke-width="2.2"/> <text x="351.2" y="1657" font-size="16" fill="#1f2a44">4</text>
  <circle cx="404" cy="1655" r="27" fill="#fdf3d2" stroke="#c9a227" stroke-width="3"/> <text x="404" y="1657" font-size="16" fill="#8a6408">5</text>
  <circle cx="456.8" cy="1655" r="25" fill="#ffffff" stroke="#b08a2a" stroke-width="2.2"/> <text x="456.8" y="1657" font-size="16" fill="#1f2a44">6</text>
  <circle cx="509.6" cy="1655" r="25" fill="#ffffff" stroke="#b08a2a" stroke-width="2.2"/> <text x="509.6" y="1657" font-size="16" fill="#1f2a44">7</text>
  <circle cx="562.4" cy="1655" r="25" fill="#ffffff" stroke="#b08a2a" stroke-width="2.2"/> <text x="562.4" y="1657" font-size="16" fill="#1f2a44">8</text>
  <circle cx="615.2" cy="1655" r="25" fill="#ffffff" stroke="#b08a2a" stroke-width="2.2"/> <text x="615.2" y="1657" font-size="16" fill="#1f2a44">9</text>
  <circle cx="668" cy="1655" r="27" fill="#fdf3d2" stroke="#c9a227" stroke-width="3"/> <text x="668" y="1657" font-size="14" fill="#8a6408">10</text>
  <circle cx="720.8" cy="1655" r="25" fill="#ffffff" stroke="#b08a2a" stroke-width="2.2"/> <text x="720.8" y="1657" font-size="14" fill="#1f2a44">11</text>
  <circle cx="773.6" cy="1655" r="25" fill="#ffffff" stroke="#b08a2a" stroke-width="2.2"/> <text x="773.6" y="1657" font-size="14" fill="#1f2a44">12</text>
  <circle cx="826.4" cy="1655" r="25" fill="#ffffff" stroke="#b08a2a" stroke-width="2.2"/> <text x="826.4" y="1657" font-size="14" fill="#1f2a44">13</text>
  <circle cx="879.2" cy="1655" r="25" fill="#ffffff" stroke="#b08a2a" stroke-width="2.2"/> <text x="879.2" y="1657" font-size="14" fill="#1f2a44">14</text>
  <circle cx="932" cy="1655" r="27" fill="#fdf3d2" stroke="#c9a227" stroke-width="3"/> <text x="932" y="1657" font-size="14" fill="#8a6408">15</text>
  <circle cx="984.8" cy="1655" r="25" fill="#ffffff" stroke="#b08a2a" stroke-width="2.2"/> <text x="984.8" y="1657" font-size="14" fill="#1f2a44">16</text>
  <circle cx="1037.6" cy="1655" r="25" fill="#ffffff" stroke="#b08a2a" stroke-width="2.2"/> <text x="1037.6" y="1657" font-size="14" fill="#1f2a44">17</text>
  <circle cx="1090.4" cy="1655" r="25" fill="#ffffff" stroke="#b08a2a" stroke-width="2.2"/> <text x="1090.4" y="1657" font-size="14" fill="#1f2a44">18</text>
  <circle cx="1143.2" cy="1655" r="25" fill="#ffffff" stroke="#b08a2a" stroke-width="2.2"/> <text x="1143.2" y="1657" font-size="14" fill="#1f2a44">19</text>
  <circle cx="1196" cy="1655" r="27" fill="#fdf3d2" stroke="#c9a227" stroke-width="3"/> <text x="1196" y="1657" font-size="14" fill="#8a6408">20</text>
  <circle cx="1248.8" cy="1655" r="25" fill="#ffffff" stroke="#b08a2a" stroke-width="2.2"/> <text x="1248.8" y="1657" font-size="14" fill="#1f2a44">21</text>
  <circle cx="1301.6" cy="1655" r="25" fill="#ffffff" stroke="#b08a2a" stroke-width="2.2"/> <text x="1301.6" y="1657" font-size="14" fill="#1f2a44">22</text>
  <circle cx="1354.4" cy="1655" r="25" fill="#ffffff" stroke="#b08a2a" stroke-width="2.2"/> <text x="1354.4" y="1657" font-size="14" fill="#1f2a44">23</text>
  <circle cx="1407.2" cy="1655" r="25" fill="#ffffff" stroke="#b08a2a" stroke-width="2.2"/> <text x="1407.2" y="1657" font-size="14" fill="#1f2a44">24</text>
  <circle cx="1460" cy="1655" r="27" fill="#fdf3d2" stroke="#c9a227" stroke-width="3"/> <text x="1460" y="1657" font-size="14" fill="#8a6408">25</text>
  <circle cx="1512.8" cy="1655" r="25" fill="#ffffff" stroke="#b08a2a" stroke-width="2.2"/> <text x="1512.8" y="1657" font-size="14" fill="#1f2a44">26</text>
  <circle cx="1565.6" cy="1655" r="25" fill="#ffffff" stroke="#b08a2a" stroke-width="2.2"/> <text x="1565.6" y="1657" font-size="14" fill="#1f2a44">27</text>
  <circle cx="1618.4" cy="1655" r="25" fill="#ffffff" stroke="#b08a2a" stroke-width="2.2"/> <text x="1618.4" y="1657" font-size="14" fill="#1f2a44">28</text>
  <circle cx="1671.2" cy="1655" r="25" fill="#ffffff" stroke="#b08a2a" stroke-width="2.2"/> <text x="1671.2" y="1657" font-size="14" fill="#1f2a44">29</text>
  <circle cx="1724" cy="1655" r="27" fill="#fdf3d2" stroke="#c9a227" stroke-width="3"/> <text x="1724" y="1657" font-size="14" fill="#8a6408">30</text>
  <circle cx="1776.8" cy="1655" r="25" fill="#ffffff" stroke="#b08a2a" stroke-width="2.2"/> <text x="1776.8" y="1657" font-size="14" fill="#1f2a44">31</text>
  <circle cx="1829.6" cy="1655" r="25" fill="#ffffff" stroke="#b08a2a" stroke-width="2.2"/> <text x="1829.6" y="1657" font-size="14" fill="#1f2a44">32</text>
  <circle cx="1882.4" cy="1655" r="25" fill="#ffffff" stroke="#b08a2a" stroke-width="2.2"/> <text x="1882.4" y="1657" font-size="14" fill="#1f2a44">33</text>
  <circle cx="1935.2" cy="1655" r="25" fill="#ffffff" stroke="#b08a2a" stroke-width="2.2"/> <text x="1935.2" y="1657" font-size="14" fill="#1f2a44">34</text>
  <circle cx="1988" cy="1655" r="27" fill="#fdf3d2" stroke="#c9a227" stroke-width="3"/> <text x="1988" y="1657" font-size="14" fill="#8a6408">35</text>
  <circle cx="2040.8" cy="1655" r="25" fill="#ffffff" stroke="#b08a2a" stroke-width="2.2"/> <text x="2040.8" y="1657" font-size="14" fill="#1f2a44">36</text>
  <circle cx="2093.6" cy="1655" r="25" fill="#ffffff" stroke="#b08a2a" stroke-width="2.2"/> <text x="2093.6" y="1657" font-size="14" fill="#1f2a44">37</text>
  <circle cx="2146.4" cy="1655" r="25" fill="#ffffff" stroke="#b08a2a" stroke-width="2.2"/> <text x="2146.4" y="1657" font-size="14" fill="#1f2a44">38</text>
  <circle cx="2199.2" cy="1655" r="25" fill="#ffffff" stroke="#b08a2a" stroke-width="2.2"/> <text x="2199.2" y="1657" font-size="14" fill="#1f2a44">39</text>
  <circle cx="2252" cy="1655" r="27" fill="#fdf3d2" stroke="#c9a227" stroke-width="3"/> <text x="2252" y="1657" font-size="14" fill="#8a6408">40</text>
  <circle cx="2304.8" cy="1655" r="25" fill="#ffffff" stroke="#b08a2a" stroke-width="2.2"/> <text x="2304.8" y="1657" font-size="14" fill="#1f2a44">41</text>
  <circle cx="2357.6" cy="1655" r="25" fill="#ffffff" stroke="#b08a2a" stroke-width="2.2"/> <text x="2357.6" y="1657" font-size="14" fill="#1f2a44">42</text>
  <circle cx="2410.4" cy="1655" r="25" fill="#ffffff" stroke="#b08a2a" stroke-width="2.2"/> <text x="2410.4" y="1657" font-size="14" fill="#1f2a44">43</text>
  <circle cx="2463.2" cy="1655" r="25" fill="#ffffff" stroke="#b08a2a" stroke-width="2.2"/> <text x="2463.2" y="1657" font-size="14" fill="#1f2a44">44</text>
  <circle cx="2516" cy="1655" r="27" fill="#fdf3d2" stroke="#c9a227" stroke-width="3"/> <text x="2516" y="1657" font-size="14" fill="#8a6408">45</text>
  <circle cx="2568.8" cy="1655" r="25" fill="#ffffff" stroke="#b08a2a" stroke-width="2.2"/> <text x="2568.8" y="1657" font-size="14" fill="#1f2a44">46</text>
  <circle cx="2621.6" cy="1655" r="25" fill="#ffffff" stroke="#b08a2a" stroke-width="2.2"/> <text x="2621.6" y="1657" font-size="14" fill="#1f2a44">47</text>
  <circle cx="2674.4" cy="1655" r="25" fill="#ffffff" stroke="#b08a2a" stroke-width="2.2"/> <text x="2674.4" y="1657" font-size="14" fill="#1f2a44">48</text>
  <circle cx="2727.2" cy="1655" r="25" fill="#ffffff" stroke="#b08a2a" stroke-width="2.2"/> <text x="2727.2" y="1657" font-size="14" fill="#1f2a44">49</text>
  <circle cx="2780" cy="1655" r="30" fill="#fff3bf" stroke="#b8860b" stroke-width="4"/> <text x="2780" y="1657" font-size="15" fill="#7a5c06">50</text>
</g>
<!-- CREDIT TRACK: 31 spaces 0-30, y=1855, x: 130 -> 2740, step 87 -->
<g font-family="Arial,sans-serif" font-weight="bold" text-anchor="middle" dominant-baseline="middle">
  <circle cx="130" cy="1855" r="36" fill="#ffffff" stroke="#57b878" stroke-width="2.5"/> <text x="130" y="1857" font-size="20" fill="#1f2a44">0</text>
  <circle cx="217" cy="1855" r="36" fill="#ffffff" stroke="#57b878" stroke-width="2.5"/> <text x="217" y="1857" font-size="20" fill="#1f2a44">1</text>
  <circle cx="304" cy="1855" r="36" fill="#ffffff" stroke="#57b878" stroke-width="2.5"/> <text x="304" y="1857" font-size="20" fill="#1f2a44">2</text>
  <circle cx="391" cy="1855" r="36" fill="#ffffff" stroke="#57b878" stroke-width="2.5"/> <text x="391" y="1857" font-size="20" fill="#1f2a44">3</text>
  <circle cx="478" cy="1855" r="36" fill="#ffffff" stroke="#57b878" stroke-width="2.5"/> <text x="478" y="1857" font-size="20" fill="#1f2a44">4</text>
  <circle cx="565" cy="1855" r="39" fill="#e3f6e8" stroke="#1f8a4c" stroke-width="3.5"/> <text x="565" y="1857" font-size="20" fill="#166534">5</text>
  <circle cx="652" cy="1855" r="36" fill="#ffffff" stroke="#57b878" stroke-width="2.5"/> <text x="652" y="1857" font-size="20" fill="#1f2a44">6</text>
  <circle cx="739" cy="1855" r="36" fill="#ffffff" stroke="#57b878" stroke-width="2.5"/> <text x="739" y="1857" font-size="20" fill="#1f2a44">7</text>
  <circle cx="826" cy="1855" r="36" fill="#ffffff" stroke="#57b878" stroke-width="2.5"/> <text x="826" y="1857" font-size="20" fill="#1f2a44">8</text>
  <circle cx="913" cy="1855" r="36" fill="#ffffff" stroke="#57b878" stroke-width="2.5"/> <text x="913" y="1857" font-size="20" fill="#1f2a44">9</text>
  <circle cx="1000" cy="1855" r="39" fill="#e3f6e8" stroke="#1f8a4c" stroke-width="3.5"/> <text x="1000" y="1857" font-size="18" fill="#166534">10</text>
  <circle cx="1087" cy="1855" r="36" fill="#ffffff" stroke="#57b878" stroke-width="2.5"/> <text x="1087" y="1857" font-size="18" fill="#1f2a44">11</text>
  <circle cx="1174" cy="1855" r="36" fill="#ffffff" stroke="#57b878" stroke-width="2.5"/> <text x="1174" y="1857" font-size="18" fill="#1f2a44">12</text>
  <circle cx="1261" cy="1855" r="36" fill="#ffffff" stroke="#57b878" stroke-width="2.5"/> <text x="1261" y="1857" font-size="18" fill="#1f2a44">13</text>
  <circle cx="1348" cy="1855" r="36" fill="#ffffff" stroke="#57b878" stroke-width="2.5"/> <text x="1348" y="1857" font-size="18" fill="#1f2a44">14</text>
  <circle cx="1435" cy="1855" r="39" fill="#e3f6e8" stroke="#1f8a4c" stroke-width="3.5"/> <text x="1435" y="1857" font-size="18" fill="#166534">15</text>
  <circle cx="1522" cy="1855" r="36" fill="#ffffff" stroke="#57b878" stroke-width="2.5"/> <text x="1522" y="1857" font-size="18" fill="#1f2a44">16</text>
  <circle cx="1609" cy="1855" r="36" fill="#ffffff" stroke="#57b878" stroke-width="2.5"/> <text x="1609" y="1857" font-size="18" fill="#1f2a44">17</text>
  <circle cx="1696" cy="1855" r="36" fill="#ffffff" stroke="#57b878" stroke-width="2.5"/> <text x="1696" y="1857" font-size="18" fill="#1f2a44">18</text>
  <circle cx="1783" cy="1855" r="36" fill="#ffffff" stroke="#57b878" stroke-width="2.5"/> <text x="1783" y="1857" font-size="18" fill="#1f2a44">19</text>
  <circle cx="1870" cy="1855" r="39" fill="#e3f6e8" stroke="#1f8a4c" stroke-width="3.5"/> <text x="1870" y="1857" font-size="18" fill="#166534">20</text>
  <circle cx="1957" cy="1855" r="36" fill="#ffffff" stroke="#57b878" stroke-width="2.5"/> <text x="1957" y="1857" font-size="18" fill="#1f2a44">21</text>
  <circle cx="2044" cy="1855" r="36" fill="#ffffff" stroke="#57b878" stroke-width="2.5"/> <text x="2044" y="1857" font-size="18" fill="#1f2a44">22</text>
  <circle cx="2131" cy="1855" r="36" fill="#ffffff" stroke="#57b878" stroke-width="2.5"/> <text x="2131" y="1857" font-size="18" fill="#1f2a44">23</text>
  <circle cx="2218" cy="1855" r="36" fill="#ffffff" stroke="#57b878" stroke-width="2.5"/> <text x="2218" y="1857" font-size="18" fill="#1f2a44">24</text>
  <circle cx="2305" cy="1855" r="39" fill="#e3f6e8" stroke="#1f8a4c" stroke-width="3.5"/> <text x="2305" y="1857" font-size="18" fill="#166534">25</text>
  <circle cx="2392" cy="1855" r="36" fill="#ffffff" stroke="#57b878" stroke-width="2.5"/> <text x="2392" y="1857" font-size="18" fill="#1f2a44">26</text>
  <circle cx="2479" cy="1855" r="36" fill="#ffffff" stroke="#57b878" stroke-width="2.5"/> <text x="2479" y="1857" font-size="18" fill="#1f2a44">27</text>
  <circle cx="2566" cy="1855" r="36" fill="#ffffff" stroke="#57b878" stroke-width="2.5"/> <text x="2566" y="1857" font-size="18" fill="#1f2a44">28</text>
  <circle cx="2653" cy="1855" r="36" fill="#ffffff" stroke="#57b878" stroke-width="2.5"/> <text x="2653" y="1857" font-size="18" fill="#1f2a44">29</text>
  <circle cx="2740" cy="1855" r="42" fill="#d8f2df" stroke="#15803d" stroke-width="4.5"/> <text x="2740" y="1857" font-size="19" fill="#14532d">30</text>
  <text x="565" y="1912" font-size="11" fill="#1f8a4c" opacity="0.9">seat 1</text>
  <text x="652" y="1912" font-size="11" fill="#1f8a4c" opacity="0.9">seat 2</text>
  <text x="739" y="1912" font-size="11" fill="#1f8a4c" opacity="0.9">seat 3</text>
  <text x="826" y="1912" font-size="11" fill="#1f8a4c" opacity="0.9">seat 4</text>
</g>
<text x="2810" y="1938" text-anchor="end" font-family="Arial,sans-serif" font-size="10" fill="#9aa5b5">playtest low-ink print &#183; 19 &#215; 13 in &#183; print at 100% scale</text>
</svg>
