<?xml version="1.0" encoding="UTF-8"?>
<!--
  Space Agency Race — Game Board (Source SVG)
  3072 × 1920 px  |  Aspect 16:10  |  Maps to TTS Custom_Board scale {24, 1, 15}

  Pixel → TTS world-space formula (board center = world {0,1.5,-1}):
    world_X = px_x * 0.0078125 − 12
    world_Z = px_y * 0.0078125 − 8.5

  To export to PNG (required by TTS):
    inkscape --export-type=png --export-width=3072 --export-height=1920 board.svg -o board.png
  or
    magick board.svg -resize 3072x1920 board.png
-->
<svg xmlns="http://www.w3.org/2000/svg" viewBox="0 0 3072 1920">
<defs>
  <filter id="glow" x="-40%" y="-40%" width="180%" height="180%">
    <feGaussianBlur stdDeviation="7" result="blur"/>
    <feMerge><feMergeNode in="blur"/><feMergeNode in="SourceGraphic"/></feMerge>
  </filter>
  <filter id="glow-sm" x="-30%" y="-30%" width="160%" height="160%">
    <feGaussianBlur stdDeviation="4" result="blur"/>
    <feMerge><feMergeNode in="blur"/><feMergeNode in="SourceGraphic"/></feMerge>
  </filter>
</defs>

<!-- ══════════════════════════════════════════════════════════════ -->
<!--  BACKGROUND                                                    -->
<!-- ══════════════════════════════════════════════════════════════ -->
<rect width="3072" height="1920" fill="#050d1f"/>

<!-- ══════════════════════════════════════════════════════════════ -->
<!--  STARS                                                         -->
<!-- ══════════════════════════════════════════════════════════════ -->
<g fill="#ffffff">
  <!-- top band -->
  <circle cx="52"   cy="38"  r="1.5" opacity=".80"/>
  <circle cx="136"  cy="72"  r="1"   opacity=".60"/>
  <circle cx="218"  cy="22"  r="1"   opacity=".70"/>
  <circle cx="304"  cy="85"  r="1.5" opacity=".75"/>
  <circle cx="390"  cy="40"  r="1"   opacity=".55"/>
  <circle cx="475"  cy="95"  r="1"   opacity=".65"/>
  <circle cx="565"  cy="28"  r="1"   opacity=".70"/>
  <circle cx="648"  cy="70"  r="1.5" opacity=".80"/>
  <circle cx="738"  cy="14"  r="1"   opacity=".50"/>
  <circle cx="825"  cy="58"  r="1"   opacity=".65"/>
  <circle cx="918"  cy="42"  r="1.5" opacity=".75"/>
  <circle cx="1008" cy="82"  r="1"   opacity=".60"/>
  <circle cx="1098" cy="25"  r="1"   opacity=".70"/>
  <circle cx="1195" cy="68"  r="1.5" opacity=".80"/>
  <circle cx="1308" cy="35"  r="1"   opacity=".55"/>
  <circle cx="1402" cy="80"  r="1"   opacity=".65"/>
  <circle cx="1508" cy="18"  r="1"   opacity=".70"/>
  <circle cx="1612" cy="62"  r="1.5" opacity=".75"/>
  <circle cx="1718" cy="40"  r="2"   opacity=".50"/>
  <circle cx="1825" cy="78"  r="1"   opacity=".65"/>
  <circle cx="1925" cy="22"  r="1"   opacity=".70"/>
  <circle cx="2032" cy="65"  r="1.5" opacity=".80"/>
  <circle cx="2148" cy="35"  r="1"   opacity=".55"/>
  <circle cx="2255" cy="80"  r="1"   opacity=".60"/>
  <circle cx="2375" cy="28"  r="1.5" opacity=".75"/>
  <circle cx="2485" cy="68"  r="1"   opacity=".65"/>
  <circle cx="2595" cy="45"  r="1"   opacity=".70"/>
  <circle cx="2718" cy="88"  r="1.5" opacity=".80"/>
  <circle cx="2832" cy="32"  r="1"   opacity=".55"/>
  <circle cx="2962" cy="72"  r="1"   opacity=".65"/>
  <!-- second band -->
  <circle cx="88"   cy="155" r="1"   opacity=".55"/>
  <circle cx="272"  cy="195" r="1.5" opacity=".70"/>
  <circle cx="445"  cy="142" r="1"   opacity=".65"/>
  <circle cx="618"  cy="182" r="1"   opacity=".75"/>
  <circle cx="808"  cy="165" r="1.5" opacity=".60"/>
  <circle cx="992"  cy="205" r="1"   opacity=".70"/>
  <circle cx="1178" cy="148" r="1"   opacity=".55"/>
  <circle cx="1382" cy="188" r="1.5" opacity=".80"/>
  <circle cx="1582" cy="162" r="1"   opacity=".65"/>
  <circle cx="1795" cy="195" r="1"   opacity=".70"/>
  <circle cx="2028" cy="150" r="2"   opacity=".50"/>
  <circle cx="2242" cy="185" r="1"   opacity=".65"/>
  <circle cx="2458" cy="155" r="1.5" opacity=".75"/>
  <circle cx="2685" cy="190" r="1"   opacity=".60"/>
  <circle cx="2905" cy="148" r="1"   opacity=".70"/>
  <!-- sparse mid bands -->
  <circle cx="68"   cy="320" r="1"   opacity=".50"/>
  <circle cx="268"  cy="348" r="1.5" opacity=".60"/>
  <circle cx="512"  cy="298" r="1"   opacity=".55"/>
  <circle cx="788"  cy="358" r="1"   opacity=".65"/>
  <circle cx="1405" cy="278" r="1.5" opacity=".70"/>
  <circle cx="1628" cy="345" r="1"   opacity=".55"/>
  <circle cx="1988" cy="308" r="2"   opacity=".45"/>
  <circle cx="2205" cy="358" r="1"   opacity=".60"/>
  <circle cx="2558" cy="322" r="1.5" opacity=".55"/>
  <circle cx="2782" cy="348" r="1"   opacity=".65"/>
  <circle cx="2972" cy="285" r="1"   opacity=".50"/>
  <!-- between Earth chain and Moon path -->
  <circle cx="48"   cy="895" r="1"   opacity=".50"/>
  <circle cx="298"  cy="862" r="1.5" opacity=".55"/>
  <circle cx="558"  cy="912" r="1"   opacity=".45"/>
  <circle cx="818"  cy="875" r="1"   opacity=".55"/>
  <circle cx="1062" cy="898" r="1.5" opacity=".60"/>
  <circle cx="2368" cy="878" r="1"   opacity=".50"/>
  <circle cx="2628" cy="858" r="1.5" opacity=".55"/>
  <circle cx="2895" cy="905" r="1"   opacity=".45"/>
  <!-- lower section -->
  <circle cx="82"   cy="1362" r="1"   opacity=".50"/>
  <circle cx="292"  cy="1445" r="1.5" opacity=".55"/>
  <circle cx="488"  cy="1388" r="1"   opacity=".45"/>
  <circle cx="685"  cy="1455" r="1"   opacity=".55"/>
  <circle cx="898"  cy="1378" r="1.5" opacity=".60"/>
  <circle cx="1108" cy="1445" r="1"   opacity=".45"/>
  <circle cx="1325" cy="1372" r="1"   opacity=".55"/>
  <circle cx="1548" cy="1452" r="1.5" opacity=".60"/>
  <circle cx="1765" cy="1385" r="1"   opacity=".50"/>
  <circle cx="1988" cy="1455" r="1"   opacity=".55"/>
  <circle cx="2212" cy="1378" r="1.5" opacity=".60"/>
  <circle cx="2445" cy="1448" r="1"   opacity=".45"/>
  <circle cx="2665" cy="1388" r="1.5" opacity=".55"/>
  <circle cx="2882" cy="1452" r="1"   opacity=".50"/>
</g>

<!-- ══════════════════════════════════════════════════════════════ -->
<!--  ZONE REGION HINTS                                             -->
<!-- ══════════════════════════════════════════════════════════════ -->
<rect x="0"    y="0"   width="1010"  height="1530" fill="#4dd9f5" opacity="0.025"/>
<rect x="950"  y="0"   width="1200"  height="740"  fill="#8ab0cc" opacity="0.025"/>
<rect x="950"  y="700" width="2122"  height="830"  fill="#e06030" opacity="0.025"/>

<!-- ══════════════════════════════════════════════════════════════ -->
<!--  ZONE LABELS                                                   -->
<!-- ══════════════════════════════════════════════════════════════ -->
<text x="80"   y="218" font-family="Arial,sans-serif" font-size="38" fill="#4dd9f5" opacity="0.30" font-weight="bold" letter-spacing="4">EARTH SYSTEM</text>
<text x="1320" y="165" font-family="Arial,sans-serif" font-size="38" fill="#8ab0cc" opacity="0.30" font-weight="bold" letter-spacing="4">LUNAR SYSTEM</text>
<text x="1430" y="1498" font-family="Arial,sans-serif" font-size="38" fill="#e06030" opacity="0.30" font-weight="bold" letter-spacing="4">MARS SYSTEM</text>

<!-- ══════════════════════════════════════════════════════════════ -->
<!--  TRACK SECTION PANELS                                          -->
<!-- ══════════════════════════════════════════════════════════════ -->
<line x1="0" y1="1530" x2="3072" y2="1530" stroke="#273555" stroke-width="2" stroke-dasharray="6,4"/>
<rect x="0" y="1530" width="3072" height="210" fill="#06101e"/>
<line x1="0" y1="1740" x2="3072" y2="1740" stroke="#1a3018" stroke-width="1" stroke-dasharray="6,4"/>
<rect x="0" y="1740" width="3072" height="180" fill="#050e14"/>

<!-- track section labels (left margin) -->
<text x="52" y="1688" font-family="Arial,sans-serif" font-size="28" fill="#f5c842" font-weight="bold" letter-spacing="1">VP</text>
<text x="52" y="1870" font-family="Arial,sans-serif" font-size="28" fill="#4ade80" font-weight="bold" letter-spacing="1">CR</text>
<text x="2710" y="1870" font-family="Arial,sans-serif" font-size="18" fill="#4ade80" opacity="0.70">start: 5 ▶</text>

<!-- ══════════════════════════════════════════════════════════════ -->
<!--  CONNECTION LINES (drawn beneath nodes)                        -->
<!-- ══════════════════════════════════════════════════════════════ -->
<!-- Earth chain (horizontal, cyan tint) -->
<line x1="155"  y1="760" x2="395"  y2="760" stroke="#1a4060" stroke-width="5" stroke-linecap="round"/>
<line x1="395"  y1="760" x2="650"  y2="760" stroke="#1a4060" stroke-width="5" stroke-linecap="round"/>
<line x1="650"  y1="760" x2="930"  y2="760" stroke="#1a4060" stroke-width="5" stroke-linecap="round"/>
<!-- High Orbit → Moon path (silver tint) -->
<line x1="930"  y1="760" x2="1190" y2="525" stroke="#2a3848" stroke-width="5" stroke-linecap="round"/>
<line x1="1190" y1="525" x2="1470" y2="365" stroke="#2a3848" stroke-width="5" stroke-linecap="round"/>
<line x1="1470" y1="365" x2="1755" y2="285" stroke="#2a3848" stroke-width="5" stroke-linecap="round"/>
<line x1="1755" y1="285" x2="2040" y2="285" stroke="#2a3848" stroke-width="5" stroke-linecap="round"/>
<!-- High Orbit → Mars path (orange-red tint) -->
<line x1="930"  y1="760" x2="1190" y2="995"  stroke="#3a1a08" stroke-width="5" stroke-linecap="round"/>
<line x1="1190" y1="995" x2="1470" y2="1140" stroke="#3a1a08" stroke-width="5" stroke-linecap="round"/>
<line x1="1470" y1="1140" x2="1750" y2="1220" stroke="#3a1a08" stroke-width="5" stroke-linecap="round"/>
<line x1="1750" y1="1220" x2="2025" y2="1255" stroke="#3a1a08" stroke-width="5" stroke-linecap="round"/>
<line x1="2025" y1="1255" x2="2295" y2="1255" stroke="#3a1a08" stroke-width="5" stroke-linecap="round"/>
<line x1="2295" y1="1255" x2="2575" y2="1255" stroke="#3a1a08" stroke-width="5" stroke-linecap="round"/>

<!-- ══════════════════════════════════════════════════════════════ -->
<!--  NODES                                                         -->
<!-- ══════════════════════════════════════════════════════════════ -->

<!-- Earth (r=55, destination-origin, glow) -->
<circle cx="155"  cy="760" r="55" fill="#0d2550" stroke="#4dd9f5" stroke-width="4" filter="url(#glow)"/>
<text x="155" y="764" text-anchor="middle" dominant-baseline="middle"
      font-family="Arial,sans-serif" font-size="21" fill="white" font-weight="bold">Earth</text>

<!-- Sub-Orbital Earth (r=38) -->
<circle cx="395"  cy="760" r="38" fill="#0d2550" stroke="#4dd9f5" stroke-width="3"/>
<text text-anchor="middle" font-family="Arial,sans-serif" font-size="13" fill="white" font-weight="bold">
  <tspan x="395" y="753">Sub-Orb</tspan>
  <tspan x="395" dy="16">Earth</tspan>
</text>

<!-- LEO (r=38) -->
<circle cx="650"  cy="760" r="38" fill="#0d2550" stroke="#4dd9f5" stroke-width="3"/>
<text x="650" y="764" text-anchor="middle" dominant-baseline="middle"
      font-family="Arial,sans-serif" font-size="20" fill="white" font-weight="bold">LEO</text>

<!-- High Orbit (r=50, hub, gold glow) -->
<circle cx="930"  cy="760" r="50" fill="#1a1400" stroke="#f5c842" stroke-width="4" filter="url(#glow)"/>
<text text-anchor="middle" font-family="Arial,sans-serif" font-size="15" fill="#f5c842" font-weight="bold">
  <tspan x="930" y="753">HIGH</tspan>
  <tspan x="930" dy="18">ORBIT</tspan>
</text>

<!-- Moon Transfer (r=38, silver) -->
<circle cx="1190" cy="525" r="38" fill="#0d1a28" stroke="#8ab0c8" stroke-width="3"/>
<text text-anchor="middle" font-family="Arial,sans-serif" font-size="13" fill="white" font-weight="bold">
  <tspan x="1190" y="518">Moon</tspan>
  <tspan x="1190" dy="16">Transfer</tspan>
</text>

<!-- Moon Orbit (r=38, silver) -->
<circle cx="1470" cy="365" r="38" fill="#0d1a28" stroke="#8ab0c8" stroke-width="3"/>
<text text-anchor="middle" font-family="Arial,sans-serif" font-size="13" fill="white" font-weight="bold">
  <tspan x="1470" y="358">Moon</tspan>
  <tspan x="1470" dy="16">Orbit</tspan>
</text>

<!-- Sub-Orbital Moon (r=38, silver) -->
<circle cx="1755" cy="285" r="38" fill="#0d1a28" stroke="#8ab0c8" stroke-width="3"/>
<text text-anchor="middle" font-family="Arial,sans-serif" font-size="13" fill="white" font-weight="bold">
  <tspan x="1755" y="278">Sub-Orb</tspan>
  <tspan x="1755" dy="16">Moon</tspan>
</text>

<!-- Moon (r=55, destination, silver glow) -->
<circle cx="2040" cy="285" r="55" fill="#0d1a28" stroke="#c0d8f0" stroke-width="4" filter="url(#glow)"/>
<text x="2040" y="289" text-anchor="middle" dominant-baseline="middle"
      font-family="Arial,sans-serif" font-size="21" fill="white" font-weight="bold">Moon</text>

<!-- Solar Orbit (r=38, warm) -->
<circle cx="1190" cy="995" r="38" fill="#1e0e05" stroke="#c07828" stroke-width="3"/>
<text text-anchor="middle" font-family="Arial,sans-serif" font-size="13" fill="white" font-weight="bold">
  <tspan x="1190" y="988">Solar</tspan>
  <tspan x="1190" dy="16">Orbit</tspan>
</text>

<!-- Mars Transfer (r=38, warm-orange) -->
<circle cx="1470" cy="1140" r="38" fill="#1e0e05" stroke="#c07828" stroke-width="3"/>
<text text-anchor="middle" font-family="Arial,sans-serif" font-size="13" fill="white" font-weight="bold">
  <tspan x="1470" y="1133">Mars</tspan>
  <tspan x="1470" dy="16">Transfer</tspan>
</text>

<!-- Mars Orbit (r=38, red-orange) -->
<circle cx="1750" cy="1220" r="38" fill="#250c04" stroke="#e06030" stroke-width="3"/>
<text text-anchor="middle" font-family="Arial,sans-serif" font-size="13" fill="white" font-weight="bold">
  <tspan x="1750" y="1213">Mars</tspan>
  <tspan x="1750" dy="16">Orbit</tspan>
</text>

<!-- LMO (r=38, red-orange) -->
<circle cx="2025" cy="1255" r="38" fill="#250c04" stroke="#e06030" stroke-width="3"/>
<text x="2025" y="1259" text-anchor="middle" dominant-baseline="middle"
      font-family="Arial,sans-serif" font-size="17" fill="white" font-weight="bold">LMO</text>

<!-- Sub-Orbital Mars (r=38, red) -->
<circle cx="2295" cy="1255" r="38" fill="#2a0e04" stroke="#e06030" stroke-width="3"/>
<text text-anchor="middle" font-family="Arial,sans-serif" font-size="13" fill="white" font-weight="bold">
  <tspan x="2295" y="1248">Sub-Orb</tspan>
  <tspan x="2295" dy="16">Mars</tspan>
</text>

<!-- Mars (r=55, destination, red glow) -->
<circle cx="2575" cy="1255" r="55" fill="#300e04" stroke="#ff5522" stroke-width="4" filter="url(#glow)"/>
<text x="2575" y="1259" text-anchor="middle" dominant-baseline="middle"
      font-family="Arial,sans-serif" font-size="21" fill="white" font-weight="bold">Mars</text>

<!-- ══════════════════════════════════════════════════════════════ -->
<!--  BOARD TITLE                                                   -->
<!-- ══════════════════════════════════════════════════════════════ -->
<text x="1536" y="65" text-anchor="middle"
      font-family="Arial,sans-serif" font-size="50" font-weight="bold"
      fill="#f5c842" letter-spacing="6">SPACE AGENCY RACE</text>
<text x="1536" y="108" text-anchor="middle"
      font-family="Arial,sans-serif" font-size="22"
      fill="#8a9ab8" letter-spacing="3">ORBITAL MAP</text>

<!-- ══════════════════════════════════════════════════════════════ -->
<!--  VP TRACK  (31 spaces 0–30,  y=1635,  x: 135→2940, step 93.5) -->
<!-- ══════════════════════════════════════════════════════════════ -->
<g font-family="Arial,sans-serif" font-weight="bold" text-anchor="middle" dominant-baseline="middle">
  <!-- normal -->
  <circle cx="135"   cy="1635" r="37" fill="#07101e" stroke="#806010" stroke-width="2"/> <text x="135"   y="1638" font-size="21" fill="white">0</text>
  <circle cx="228.5" cy="1635" r="37" fill="#07101e" stroke="#806010" stroke-width="2"/> <text x="228.5" y="1638" font-size="21" fill="white">1</text>
  <circle cx="322"   cy="1635" r="37" fill="#07101e" stroke="#806010" stroke-width="2"/> <text x="322"   y="1638" font-size="21" fill="white">2</text>
  <circle cx="415.5" cy="1635" r="37" fill="#07101e" stroke="#806010" stroke-width="2"/> <text x="415.5" y="1638" font-size="21" fill="white">3</text>
  <circle cx="509"   cy="1635" r="37" fill="#07101e" stroke="#806010" stroke-width="2"/> <text x="509"   y="1638" font-size="21" fill="white">4</text>
  <!-- milestone 5 -->
  <circle cx="602.5" cy="1635" r="40" fill="#0d1c08" stroke="#f5c842" stroke-width="3" filter="url(#glow-sm)"/> <text x="602.5" y="1638" font-size="22" fill="#f5c842">5</text>
  <!-- normal -->
  <circle cx="696"   cy="1635" r="37" fill="#07101e" stroke="#806010" stroke-width="2"/> <text x="696"   y="1638" font-size="21" fill="white">6</text>
  <circle cx="789.5" cy="1635" r="37" fill="#07101e" stroke="#806010" stroke-width="2"/> <text x="789.5" y="1638" font-size="21" fill="white">7</text>
  <circle cx="883"   cy="1635" r="37" fill="#07101e" stroke="#806010" stroke-width="2"/> <text x="883"   y="1638" font-size="21" fill="white">8</text>
  <circle cx="976.5" cy="1635" r="37" fill="#07101e" stroke="#806010" stroke-width="2"/> <text x="976.5" y="1638" font-size="21" fill="white">9</text>
  <!-- milestone 10 -->
  <circle cx="1070"  cy="1635" r="40" fill="#0d1c08" stroke="#f5c842" stroke-width="3" filter="url(#glow-sm)"/> <text x="1070"  y="1638" font-size="18" fill="#f5c842">10</text>
  <!-- normal -->
  <circle cx="1163.5" cy="1635" r="37" fill="#07101e" stroke="#806010" stroke-width="2"/> <text x="1163.5" y="1638" font-size="18" fill="white">11</text>
  <circle cx="1257"   cy="1635" r="37" fill="#07101e" stroke="#806010" stroke-width="2"/> <text x="1257"   y="1638" font-size="18" fill="white">12</text>
  <circle cx="1350.5" cy="1635" r="37" fill="#07101e" stroke="#806010" stroke-width="2"/> <text x="1350.5" y="1638" font-size="18" fill="white">13</text>
  <circle cx="1444"   cy="1635" r="37" fill="#07101e" stroke="#806010" stroke-width="2"/> <text x="1444"   y="1638" font-size="18" fill="white">14</text>
  <!-- milestone 15 -->
  <circle cx="1537.5" cy="1635" r="40" fill="#0d1c08" stroke="#f5c842" stroke-width="3" filter="url(#glow-sm)"/> <text x="1537.5" y="1638" font-size="18" fill="#f5c842">15</text>
  <!-- normal -->
  <circle cx="1631"   cy="1635" r="37" fill="#07101e" stroke="#806010" stroke-width="2"/> <text x="1631"   y="1638" font-size="18" fill="white">16</text>
  <circle cx="1724.5" cy="1635" r="37" fill="#07101e" stroke="#806010" stroke-width="2"/> <text x="1724.5" y="1638" font-size="18" fill="white">17</text>
  <circle cx="1818"   cy="1635" r="37" fill="#07101e" stroke="#806010" stroke-width="2"/> <text x="1818"   y="1638" font-size="18" fill="white">18</text>
  <circle cx="1911.5" cy="1635" r="37" fill="#07101e" stroke="#806010" stroke-width="2"/> <text x="1911.5" y="1638" font-size="18" fill="white">19</text>
  <!-- milestone 20 -->
  <circle cx="2005"   cy="1635" r="40" fill="#0d1c08" stroke="#f5c842" stroke-width="3" filter="url(#glow-sm)"/> <text x="2005"   y="1638" font-size="18" fill="#f5c842">20</text>
  <!-- normal -->
  <circle cx="2098.5" cy="1635" r="37" fill="#07101e" stroke="#806010" stroke-width="2"/> <text x="2098.5" y="1638" font-size="18" fill="white">21</text>
  <circle cx="2192"   cy="1635" r="37" fill="#07101e" stroke="#806010" stroke-width="2"/> <text x="2192"   y="1638" font-size="18" fill="white">22</text>
  <circle cx="2285.5" cy="1635" r="37" fill="#07101e" stroke="#806010" stroke-width="2"/> <text x="2285.5" y="1638" font-size="18" fill="white">23</text>
  <circle cx="2379"   cy="1635" r="37" fill="#07101e" stroke="#806010" stroke-width="2"/> <text x="2379"   y="1638" font-size="18" fill="white">24</text>
  <!-- milestone 25 -->
  <circle cx="2472.5" cy="1635" r="40" fill="#0d1c08" stroke="#f5c842" stroke-width="3" filter="url(#glow-sm)"/> <text x="2472.5" y="1638" font-size="18" fill="#f5c842">25</text>
  <!-- normal -->
  <circle cx="2566"   cy="1635" r="37" fill="#07101e" stroke="#806010" stroke-width="2"/> <text x="2566"   y="1638" font-size="18" fill="white">26</text>
  <circle cx="2659.5" cy="1635" r="37" fill="#07101e" stroke="#806010" stroke-width="2"/> <text x="2659.5" y="1638" font-size="18" fill="white">27</text>
  <circle cx="2753"   cy="1635" r="37" fill="#07101e" stroke="#806010" stroke-width="2"/> <text x="2753"   y="1638" font-size="18" fill="white">28</text>
  <circle cx="2846.5" cy="1635" r="37" fill="#07101e" stroke="#806010" stroke-width="2"/> <text x="2846.5" y="1638" font-size="18" fill="white">29</text>
  <!-- end 30 -->
  <circle cx="2940"   cy="1635" r="42" fill="#101e04" stroke="#ffdd00" stroke-width="4" filter="url(#glow-sm)"/> <text x="2940"   y="1638" font-size="20" fill="#ffdd00">30</text>
</g>

<!-- ══════════════════════════════════════════════════════════════ -->
<!--  CREDIT TRACK  (21 spaces 0–20,  y=1820,  x: 150→2550, step 120) -->
<!-- ══════════════════════════════════════════════════════════════ -->
<g font-family="Arial,sans-serif" font-weight="bold" text-anchor="middle" dominant-baseline="middle">
  <!-- start marker at 0 -->
  <circle cx="150"  cy="1820" r="37" fill="#050f10" stroke="#1a5028" stroke-width="2"/> <text x="150"  y="1823" font-size="21" fill="white">0</text>
  <circle cx="270"  cy="1820" r="37" fill="#050f10" stroke="#1a5028" stroke-width="2"/> <text x="270"  y="1823" font-size="21" fill="white">1</text>
  <circle cx="390"  cy="1820" r="37" fill="#050f10" stroke="#1a5028" stroke-width="2"/> <text x="390"  y="1823" font-size="21" fill="white">2</text>
  <circle cx="510"  cy="1820" r="37" fill="#050f10" stroke="#1a5028" stroke-width="2"/> <text x="510"  y="1823" font-size="21" fill="white">3</text>
  <circle cx="630"  cy="1820" r="37" fill="#050f10" stroke="#1a5028" stroke-width="2"/> <text x="630"  y="1823" font-size="21" fill="white">4</text>
  <!-- milestone 5 (starting position) -->
  <circle cx="750"  cy="1820" r="40" fill="#0a1e10" stroke="#4ade80" stroke-width="3" filter="url(#glow-sm)"/> <text x="750"  y="1823" font-size="22" fill="#4ade80">5</text>
  <circle cx="870"  cy="1820" r="37" fill="#050f10" stroke="#1a5028" stroke-width="2"/> <text x="870"  y="1823" font-size="21" fill="white">6</text>
  <circle cx="990"  cy="1820" r="37" fill="#050f10" stroke="#1a5028" stroke-width="2"/> <text x="990"  y="1823" font-size="21" fill="white">7</text>
  <circle cx="1110" cy="1820" r="37" fill="#050f10" stroke="#1a5028" stroke-width="2"/> <text x="1110" y="1823" font-size="21" fill="white">8</text>
  <circle cx="1230" cy="1820" r="37" fill="#050f10" stroke="#1a5028" stroke-width="2"/> <text x="1230" y="1823" font-size="21" fill="white">9</text>
  <!-- milestone 10 -->
  <circle cx="1350" cy="1820" r="40" fill="#0a1e10" stroke="#4ade80" stroke-width="3" filter="url(#glow-sm)"/> <text x="1350" y="1823" font-size="18" fill="#4ade80">10</text>
  <circle cx="1470" cy="1820" r="37" fill="#050f10" stroke="#1a5028" stroke-width="2"/> <text x="1470" y="1823" font-size="18" fill="white">11</text>
  <circle cx="1590" cy="1820" r="37" fill="#050f10" stroke="#1a5028" stroke-width="2"/> <text x="1590" y="1823" font-size="18" fill="white">12</text>
  <circle cx="1710" cy="1820" r="37" fill="#050f10" stroke="#1a5028" stroke-width="2"/> <text x="1710" y="1823" font-size="18" fill="white">13</text>
  <circle cx="1830" cy="1820" r="37" fill="#050f10" stroke="#1a5028" stroke-width="2"/> <text x="1830" y="1823" font-size="18" fill="white">14</text>
  <!-- milestone 15 -->
  <circle cx="1950" cy="1820" r="40" fill="#0a1e10" stroke="#4ade80" stroke-width="3" filter="url(#glow-sm)"/> <text x="1950" y="1823" font-size="18" fill="#4ade80">15</text>
  <circle cx="2070" cy="1820" r="37" fill="#050f10" stroke="#1a5028" stroke-width="2"/> <text x="2070" y="1823" font-size="18" fill="white">16</text>
  <circle cx="2190" cy="1820" r="37" fill="#050f10" stroke="#1a5028" stroke-width="2"/> <text x="2190" y="1823" font-size="18" fill="white">17</text>
  <circle cx="2310" cy="1820" r="37" fill="#050f10" stroke="#1a5028" stroke-width="2"/> <text x="2310" y="1823" font-size="18" fill="white">18</text>
  <circle cx="2430" cy="1820" r="37" fill="#050f10" stroke="#1a5028" stroke-width="2"/> <text x="2430" y="1823" font-size="18" fill="white">19</text>
  <!-- end 20 -->
  <circle cx="2550" cy="1820" r="42" fill="#102010" stroke="#86efac" stroke-width="4" filter="url(#glow-sm)"/> <text x="2550" y="1823" font-size="20" fill="#86efac">20</text>
</g>

</svg>
