<?xml version="1.0" encoding="UTF-8"?>
<!--
  Space Agency Race — Game Board (Source SVG)
  3072 × 1920 px  |  Aspect 16:10  |  Maps to TTS Custom_Board scale {24, 1, 15}

  Pixel → TTS world-space formula (board center = world {0,1.5,-1}):
    world_X = px_x * 0.0078125 − 12
    world_Z = px_y * 0.0078125 − 8.5

  To export to PNG (required by TTS):
    inkscape with export-type=png, export-width=3072, export-height=1920, output board.png
  or
    magick board.svg resized to 3072x1920 as board.png
-->
<svg xmlns="http://www.w3.org/2000/svg" viewBox="0 0 3072 1920">
<defs>
  <filter id="glow" x="-40%" y="-40%" width="180%" height="180%">
    <feGaussianBlur stdDeviation="7" result="blur"/>
    <feMerge><feMergeNode in="blur"/><feMergeNode in="SourceGraphic"/></feMerge>
  </filter>
  <filter id="glow-sm" x="-30%" y="-30%" width="160%" height="160%">
    <feGaussianBlur stdDeviation="4" result="blur"/>
    <feMerge><feMergeNode in="blur"/><feMergeNode in="SourceGraphic"/></feMerge>
  </filter>
  <filter id="earth-glow" x="-100%" y="-100%" width="300%" height="300%">
    <feGaussianBlur stdDeviation="12" result="blur"/>
    <feColorMatrix type="matrix" values="0 0 0 0 0.20 0 0 0 0 0.85 0 0 0 0 0.60 0 0 0 0.85 0"/>
    <feMerge><feMergeNode in="blur"/><feMergeNode in="SourceGraphic"/></feMerge>
  </filter>
  <filter id="moon-glow" x="-120%" y="-120%" width="340%" height="340%">
    <feGaussianBlur stdDeviation="10" result="blur"/>
    <feColorMatrix type="matrix" values="0 0 0 0 0.75 0 0 0 0 0.78 0 0 0 0 0.82 0 0 0 0.75 0"/>
    <feMerge><feMergeNode in="blur"/><feMergeNode in="SourceGraphic"/></feMerge>
  </filter>
  <filter id="mars-glow" x="-100%" y="-100%" width="300%" height="300%">
    <feGaussianBlur stdDeviation="12" result="blur"/>
    <feColorMatrix type="matrix" values="0 0 0 0 0.95 0 0 0 0 0.35 0 0 0 0 0.20 0 0 0 0.85 0"/>
    <feMerge><feMergeNode in="blur"/><feMergeNode in="SourceGraphic"/></feMerge>
  </filter>
  <radialGradient id="earth-fill" cx="35%" cy="35%" r="70%">
    <stop offset="0%" stop-color="#5ee290"/>
    <stop offset="60%" stop-color="#22c55e"/>
    <stop offset="100%" stop-color="#0b4728"/>
  </radialGradient>
  <radialGradient id="moon-fill" cx="35%" cy="35%" r="70%">
    <stop offset="0%" stop-color="#d2d6dc"/>
    <stop offset="60%" stop-color="#9da3ad"/>
    <stop offset="100%" stop-color="#59606c"/>
  </radialGradient>
  <radialGradient id="mars-fill" cx="35%" cy="35%" r="70%">
    <stop offset="0%" stop-color="#ff8569"/>
    <stop offset="60%" stop-color="#ef4444"/>
    <stop offset="100%" stop-color="#64120d"/>
  </radialGradient>
  <radialGradient id="sun-haze" cx="0%" cy="55%" r="70%">
    <stop offset="0%" stop-color="#ffd277" stop-opacity="0.18"/>
    <stop offset="45%" stop-color="#fbbf24" stop-opacity="0.08"/>
    <stop offset="100%" stop-color="#fbbf24" stop-opacity="0"/>
  </radialGradient>
  <clipPath id="map-area">
    <rect x="0" y="0" width="3072" height="1530"/>
  </clipPath>
</defs>

<!-- Background -->
<rect width="3072" height="1920" fill="#050d1f"/>
<rect width="3072" height="1530" fill="url(#sun-haze)"/>

<!-- stars -->
<g fill="#ffffff">
  <circle cx="66" cy="42" r="1.4" opacity="0.74"/>
  <circle cx="212" cy="86" r="1.1" opacity="0.58"/>
  <circle cx="362" cy="24" r="1.0" opacity="0.66"/>
  <circle cx="522" cy="102" r="1.5" opacity="0.75"/>
  <circle cx="688" cy="38" r="1.0" opacity="0.54"/>
  <circle cx="836" cy="88" r="1.2" opacity="0.68"/>
  <circle cx="1018" cy="28" r="1.3" opacity="0.72"/>
  <circle cx="1178" cy="98" r="1.1" opacity="0.57"/>
  <circle cx="1328" cy="42" r="1.8" opacity="0.76"/>
  <circle cx="1488" cy="74" r="1.1" opacity="0.62"/>
  <circle cx="1672" cy="26" r="1.1" opacity="0.70"/>
  <circle cx="1834" cy="92" r="1.4" opacity="0.75"/>
  <circle cx="1998" cy="48" r="1.1" opacity="0.56"/>
  <circle cx="2142" cy="86" r="1.3" opacity="0.67"/>
  <circle cx="2310" cy="34" r="1.0" opacity="0.73"/>
  <circle cx="2478" cy="92" r="1.5" opacity="0.78"/>
  <circle cx="2646" cy="40" r="1.2" opacity="0.61"/>
  <circle cx="2824" cy="86" r="1.1" opacity="0.66"/>
  <circle cx="2994" cy="36" r="1.0" opacity="0.58"/>
  <circle cx="126" cy="226" r="1.0" opacity="0.58"/>
  <circle cx="346" cy="284" r="1.3" opacity="0.70"/>
  <circle cx="582" cy="240" r="1.0" opacity="0.56"/>
  <circle cx="806" cy="296" r="1.2" opacity="0.67"/>
  <circle cx="1010" cy="252" r="1.0" opacity="0.54"/>
  <circle cx="1230" cy="304" r="1.4" opacity="0.74"/>
  <circle cx="1486" cy="248" r="1.1" opacity="0.60"/>
  <circle cx="1714" cy="294" r="1.2" opacity="0.65"/>
  <circle cx="1932" cy="244" r="1.9" opacity="0.46"/>
  <circle cx="2148" cy="302" r="1.1" opacity="0.62"/>
  <circle cx="2386" cy="248" r="1.3" opacity="0.70"/>
  <circle cx="2624" cy="302" r="1.1" opacity="0.60"/>
  <circle cx="2862" cy="248" r="1.0" opacity="0.64"/>
  <circle cx="3022" cy="292" r="1.1" opacity="0.55"/>
  <circle cx="150" cy="640" r="1.0" opacity="0.55"/>
  <circle cx="330" cy="732" r="1.1" opacity="0.57"/>
  <circle cx="560" cy="670" r="1.0" opacity="0.50"/>
  <circle cx="754" cy="766" r="1.3" opacity="0.63"/>
  <circle cx="990" cy="704" r="1.0" opacity="0.52"/>
  <circle cx="1182" cy="786" r="1.2" opacity="0.59"/>
  <circle cx="1410" cy="704" r="1.1" opacity="0.56"/>
  <circle cx="1618" cy="780" r="1.2" opacity="0.60"/>
  <circle cx="1856" cy="708" r="1.0" opacity="0.53"/>
  <circle cx="2082" cy="770" r="1.1" opacity="0.57"/>
  <circle cx="2304" cy="706" r="1.0" opacity="0.51"/>
  <circle cx="2520" cy="772" r="1.2" opacity="0.60"/>
  <circle cx="2744" cy="712" r="1.1" opacity="0.56"/>
  <circle cx="2958" cy="784" r="1.0" opacity="0.52"/>
  <circle cx="122" cy="1252" r="1.0" opacity="0.48"/>
  <circle cx="336" cy="1410" r="1.3" opacity="0.56"/>
  <circle cx="558" cy="1326" r="1.0" opacity="0.49"/>
  <circle cx="756" cy="1440" r="1.1" opacity="0.55"/>
  <circle cx="970" cy="1338" r="1.2" opacity="0.58"/>
  <circle cx="1188" cy="1452" r="1.0" opacity="0.48"/>
  <circle cx="1412" cy="1330" r="1.0" opacity="0.54"/>
  <circle cx="1626" cy="1450" r="1.3" opacity="0.60"/>
  <circle cx="1842" cy="1338" r="1.0" opacity="0.50"/>
  <circle cx="2066" cy="1452" r="1.0" opacity="0.54"/>
  <circle cx="2288" cy="1332" r="1.3" opacity="0.59"/>
  <circle cx="2512" cy="1452" r="1.0" opacity="0.47"/>
  <circle cx="2734" cy="1330" r="1.2" opacity="0.56"/>
  <circle cx="2952" cy="1452" r="1.0" opacity="0.50"/>
</g>

<g clip-path="url(#map-area)">
  <!-- influence regions -->
  <circle cx="200" cy="1050" r="1100" fill="#4dd9f5" opacity="0.02"/>
  <circle cx="2870" cy="1050" r="900" fill="#e06030" opacity="0.02"/>

  <!-- Earth node spaces (full annular bands) -->
  <circle cx="200" cy="1050" r="120" fill="none" stroke="#8de7c3" stroke-width="130" opacity="0.26"/>
  <circle cx="200" cy="1050" r="270" fill="none" stroke="#9ddffc" stroke-width="170" opacity="0.18"/>
  <circle cx="200" cy="1050" r="462" fill="none" stroke="#f5c842" stroke-width="215" opacity="0.16"/>

  <!-- Moon node spaces (expanded again for token fit: two nodes + surface) -->
  <circle cx="320" cy="240" r="81" fill="none" stroke="#d2d9e4" stroke-width="78" opacity="0.30"/>
  <circle cx="320" cy="240" r="170" fill="none" stroke="#b8c7d9" stroke-width="100" opacity="0.26"/>

  <!-- Mars node spaces -->
  <circle cx="2870" cy="1050" r="120" fill="none" stroke="#ff9f7f" stroke-width="130" opacity="0.26"/>
  <circle cx="2870" cy="1050" r="270" fill="none" stroke="#f3a07d" stroke-width="170" opacity="0.18"/>
  <circle cx="2870" cy="1050" r="462" fill="none" stroke="#e06030" stroke-width="215" opacity="0.16"/>

  <!-- Boundary lines for readability -->
  <g fill="none" stroke="#aeb4be" stroke-width="2" opacity="0.7">
    <circle cx="200" cy="1050" r="185"/>
    <circle cx="200" cy="1050" r="355"/>
    <circle cx="200" cy="1050" r="570"/>
    <circle cx="200" cy="1050" r="1100"/>
    <circle cx="320" cy="240" r="120"/>
    <circle cx="320" cy="240" r="220"/>
    <circle cx="2870" cy="1050" r="185"/>
    <circle cx="2870" cy="1050" r="355"/>
    <circle cx="2870" cy="1050" r="570"/>
    <circle cx="2870" cy="1050" r="900"/>
  </g>

  <circle cx="200" cy="1050" r="570" fill="none" stroke="#f3cf5a" stroke-width="4" opacity="0.75"/>

  <!-- Solar orbit + transfer window node spaces -->
  <rect x="1070" y="650" width="310" height="750" rx="24" fill="#c07828" opacity="0.15"/>
  <rect x="1380" y="650" width="310" height="750" rx="24" fill="#ec4899" opacity="0.15"/>
  <rect x="1720" y="650" width="260" height="750" rx="24" fill="#c07828" opacity="0.12"/>
  <line x1="1380" y1="640" x2="1380" y2="1420" stroke="#f5a6cf" stroke-width="4" opacity="0.8"/>
  <line x1="1690" y1="640" x2="1690" y2="1420" stroke="#f5a6cf" stroke-width="4" opacity="0.8"/>

  <!-- Connection paths -->
  <path d="M 625 620 C 535 520, 440 430, 365 340" fill="none" stroke="#b7d8f0" stroke-width="10" stroke-linecap="round" opacity="0.40"/>
  <path d="M 365 340 C 348 316, 335 296, 322 282" fill="none" stroke="#b7c3d4" stroke-width="10" stroke-linecap="round" opacity="0.35"/>
  <path d="M 760 1050 L 1070 1050" fill="none" stroke="#f5c842" stroke-width="12" stroke-linecap="round" opacity="0.45"/>
  <path d="M 1380 1050 L 1690 1050" fill="none" stroke="#ec4899" stroke-width="12" stroke-linecap="round" opacity="0.45"/>
  <path d="M 1720 1050 L 1980 1050" fill="none" stroke="#c07828" stroke-width="12" stroke-linecap="round" opacity="0.45"/>
  <path d="M 1980 1050 L 2300 1050" fill="none" stroke="#e06030" stroke-width="12" stroke-linecap="round" opacity="0.45"/>
  <path d="M 750 980 C 1100 760, 1640 760, 2050 980" fill="none" stroke="#f5c842" stroke-width="3" stroke-dasharray="16,16" opacity="0.45"/>
  <path d="M 840 1140 C 1280 900, 1760 900, 2200 1140" fill="none" stroke="#ec4899" stroke-width="2" stroke-dasharray="8,12" opacity="0.35"/>

  <!-- Direction arrows / chevrons -->
  <text x="478" y="1042" font-family="Arial,sans-serif" font-size="26" fill="#d0f5e4" opacity="0.72">&gt;&gt;</text>
  <text x="760" y="1042" font-family="Arial,sans-serif" font-size="26" fill="#d0f5e4" opacity="0.72">&gt;&gt;</text>
  <text x="1210" y="1042" font-family="Arial,sans-serif" font-size="26" fill="#ffe2b3" opacity="0.72">&gt;&gt;</text>
  <text x="1512" y="1042" font-family="Arial,sans-serif" font-size="26" fill="#ffd2ea" opacity="0.72">&gt;&gt;</text>
  <text x="1860" y="1042" font-family="Arial,sans-serif" font-size="26" fill="#ffe2b3" opacity="0.72">&gt;&gt;</text>
  <text x="2200" y="1042" font-family="Arial,sans-serif" font-size="26" fill="#ffc3ad" opacity="0.72">&gt;&gt;</text>
  <text x="395" y="338" font-family="Arial,sans-serif" font-size="24" fill="#d8e0ea" opacity="0.62">&gt;&gt;</text>

  <!-- planet bodies -->
  <circle cx="200" cy="1050" r="55" fill="url(#earth-fill)" filter="url(#earth-glow)"/>
  <circle cx="320" cy="240" r="42" fill="url(#moon-fill)" filter="url(#moon-glow)"/>
  <circle cx="2870" cy="1050" r="55" fill="url(#mars-fill)" filter="url(#mars-glow)"/>

  <!-- labels -->
  <text x="200" y="1056" text-anchor="middle" font-family="Arial,sans-serif" font-size="20" font-weight="bold" fill="#ecfff4">EARTH</text>
  <text x="320" y="246" text-anchor="middle" font-family="Arial,sans-serif" font-size="12" font-weight="bold" fill="#f4f7fb">MOON</text>
  <text x="2870" y="1056" text-anchor="middle" font-family="Arial,sans-serif" font-size="20" font-weight="bold" fill="#fff1eb">MARS</text>

  <text x="320" y="1058" font-family="Arial,sans-serif" font-size="17" fill="#d8fff1" font-weight="bold">SUB-ORBITAL EARTH</text>
  <text x="445" y="1058" font-family="Arial,sans-serif" font-size="19" fill="#d8f2ff" font-weight="bold">LEO</text>
  <text x="602" y="1058" font-family="Arial,sans-serif" font-size="19" fill="#f7de84" font-weight="bold">HIGH ORBIT</text>

  <text x="320" y="334" text-anchor="middle" font-family="Arial,sans-serif" font-size="13" fill="#eef4fb" font-weight="bold">SUB-ORBITAL FLIGHTS</text>
  <text x="320" y="384" text-anchor="middle" font-family="Arial,sans-serif" font-size="13" fill="#e7eff8" font-weight="bold">MOON ORBIT</text>

  <text x="2650" y="1058" text-anchor="end" font-family="Arial,sans-serif" font-size="17" fill="#ffe6db" font-weight="bold">SUB-ORBITAL MARS</text>
  <text x="2485" y="1058" text-anchor="end" font-family="Arial,sans-serif" font-size="19" fill="#ffd4c0" font-weight="bold">LMO</text>
  <text x="2320" y="1058" text-anchor="end" font-family="Arial,sans-serif" font-size="19" fill="#ffc6ae" font-weight="bold">MARS ORBIT</text>

  <text x="1225" y="1036" text-anchor="middle" font-family="Arial,sans-serif" font-size="24" fill="#ffe2b5" font-weight="bold">SOLAR ORBIT</text>
  <text x="1225" y="1068" text-anchor="middle" font-family="Arial,sans-serif" font-size="14" fill="#ffe2b5" opacity="0.88" font-weight="bold">SUN ORBIT (EARTH LEVEL)</text>
  <text x="1535" y="954" text-anchor="middle" font-family="Arial,sans-serif" font-size="24" fill="#ffd3ea" font-weight="bold" letter-spacing="1">TRANSFER WINDOW</text>
  <text x="1535" y="995" text-anchor="middle" font-family="Arial,sans-serif" font-size="16" fill="#ffd3ea" opacity="0.85">Event: may cost 0 movement</text>
  <text x="1850" y="1036" text-anchor="middle" font-family="Arial,sans-serif" font-size="22" fill="#ffe2b5" font-weight="bold">SOLAR ORBIT</text>
  <text x="1850" y="1068" text-anchor="middle" font-family="Arial,sans-serif" font-size="14" fill="#ffe2b5" opacity="0.88" font-weight="bold">MARS LEVEL</text>
  <text x="980" y="960" text-anchor="end" font-family="Arial,sans-serif" font-size="20" fill="#d8f2ff" font-weight="bold">EARTH INFLUENCE ZONE</text>
  <text x="980" y="984" text-anchor="end" font-family="Arial,sans-serif" font-size="12" fill="#d8f2ff" opacity="0.88" font-weight="bold">MOON TRANSFER ABSORBED HERE</text>

  <text x="84" y="252" font-family="Arial,sans-serif" font-size="38" fill="#74f8cd" opacity="0.28" font-weight="bold" letter-spacing="4">EARTH SYSTEM</text>
  <text x="418" y="208" font-family="Arial,sans-serif" font-size="32" fill="#b9cae0" opacity="0.32" font-weight="bold" letter-spacing="3">LUNAR SYSTEM</text>
  <text x="2258" y="1454" font-family="Arial,sans-serif" font-size="38" fill="#ff9f7f" opacity="0.30" font-weight="bold" letter-spacing="4">MARS SYSTEM</text>

  <!-- flavor icon -->
  <g transform="translate(1468 1138)" opacity="0.74">
    <path d="M 0 -22 L 10 0 L 0 18 L -10 0 Z" fill="#f9e2f2"/>
    <path d="M 0 -8 L 18 10 L 6 10 Z" fill="#ff9fcf"/>
    <path d="M 0 -8 L -18 10 L -6 10 Z" fill="#ff9fcf"/>
    <rect x="-2" y="18" width="4" height="10" fill="#ffd27d"/>
    <path d="M -2 28 L 0 36 L 2 28 Z" fill="#ff8f42"/>
  </g>
</g>

<!-- track section panels -->
<line x1="0" y1="1530" x2="3072" y2="1530" stroke="#273555" stroke-width="2" stroke-dasharray="6,4"/>
<rect x="0" y="1530" width="3072" height="210" fill="#06101e"/>
<line x1="0" y1="1740" x2="3072" y2="1740" stroke="#1a3018" stroke-width="1" stroke-dasharray="6,4"/>
<rect x="0" y="1740" width="3072" height="180" fill="#050e14"/>

<!-- track section labels -->
<text x="52" y="1688" font-family="Arial,sans-serif" font-size="28" fill="#f5c842" font-weight="bold" letter-spacing="1">VP</text>
<text x="52" y="1870" font-family="Arial,sans-serif" font-size="28" fill="#4ade80" font-weight="bold" letter-spacing="1">CR</text>
<text x="2710" y="1870" font-family="Arial,sans-serif" font-size="18" fill="#4ade80" opacity="0.70">start: 5 ▶</text>

<!-- title -->
<text x="1536" y="65" text-anchor="middle"
      font-family="Arial,sans-serif" font-size="50" font-weight="bold"
      fill="#f5c842" letter-spacing="6">SPACE AGENCY RACE</text>
<text x="1536" y="108" text-anchor="middle"
      font-family="Arial,sans-serif" font-size="22"
      fill="#8a9ab8" letter-spacing="3">ORBITAL MAP v2</text>

<!-- ══════════════════════════════════════════════════════════════ -->
<!--  VP TRACK  (31 spaces 0–30,  y=1635,  x: 135→2940, step 93.5) -->
<!-- ══════════════════════════════════════════════════════════════ -->
<g font-family="Arial,sans-serif" font-weight="bold" text-anchor="middle" dominant-baseline="middle">
  <!-- normal -->
  <circle cx="135"   cy="1635" r="37" fill="#07101e" stroke="#806010" stroke-width="2"/> <text x="135"   y="1638" font-size="21" fill="white">0</text>
  <circle cx="228.5" cy="1635" r="37" fill="#07101e" stroke="#806010" stroke-width="2"/> <text x="228.5" y="1638" font-size="21" fill="white">1</text>
  <circle cx="322"   cy="1635" r="37" fill="#07101e" stroke="#806010" stroke-width="2"/> <text x="322"   y="1638" font-size="21" fill="white">2</text>
  <circle cx="415.5" cy="1635" r="37" fill="#07101e" stroke="#806010" stroke-width="2"/> <text x="415.5" y="1638" font-size="21" fill="white">3</text>
  <circle cx="509"   cy="1635" r="37" fill="#07101e" stroke="#806010" stroke-width="2"/> <text x="509"   y="1638" font-size="21" fill="white">4</text>
  <!-- milestone 5 -->
  <circle cx="602.5" cy="1635" r="40" fill="#0d1c08" stroke="#f5c842" stroke-width="3" filter="url(#glow-sm)"/> <text x="602.5" y="1638" font-size="22" fill="#f5c842">5</text>
  <!-- normal -->
  <circle cx="696"   cy="1635" r="37" fill="#07101e" stroke="#806010" stroke-width="2"/> <text x="696"   y="1638" font-size="21" fill="white">6</text>
  <circle cx="789.5" cy="1635" r="37" fill="#07101e" stroke="#806010" stroke-width="2"/> <text x="789.5" y="1638" font-size="21" fill="white">7</text>
  <circle cx="883"   cy="1635" r="37" fill="#07101e" stroke="#806010" stroke-width="2"/> <text x="883"   y="1638" font-size="21" fill="white">8</text>
  <circle cx="976.5" cy="1635" r="37" fill="#07101e" stroke="#806010" stroke-width="2"/> <text x="976.5" y="1638" font-size="21" fill="white">9</text>
  <!-- milestone 10 -->
  <circle cx="1070"  cy="1635" r="40" fill="#0d1c08" stroke="#f5c842" stroke-width="3" filter="url(#glow-sm)"/> <text x="1070"  y="1638" font-size="18" fill="#f5c842">10</text>
  <!-- normal -->
  <circle cx="1163.5" cy="1635" r="37" fill="#07101e" stroke="#806010" stroke-width="2"/> <text x="1163.5" y="1638" font-size="18" fill="white">11</text>
  <circle cx="1257"   cy="1635" r="37" fill="#07101e" stroke="#806010" stroke-width="2"/> <text x="1257"   y="1638" font-size="18" fill="white">12</text>
  <circle cx="1350.5" cy="1635" r="37" fill="#07101e" stroke="#806010" stroke-width="2"/> <text x="1350.5" y="1638" font-size="18" fill="white">13</text>
  <circle cx="1444"   cy="1635" r="37" fill="#07101e" stroke="#806010" stroke-width="2"/> <text x="1444"   y="1638" font-size="18" fill="white">14</text>
  <!-- milestone 15 -->
  <circle cx="1537.5" cy="1635" r="40" fill="#0d1c08" stroke="#f5c842" stroke-width="3" filter="url(#glow-sm)"/> <text x="1537.5" y="1638" font-size="18" fill="#f5c842">15</text>
  <!-- normal -->
  <circle cx="1631"   cy="1635" r="37" fill="#07101e" stroke="#806010" stroke-width="2"/> <text x="1631"   y="1638" font-size="18" fill="white">16</text>
  <circle cx="1724.5" cy="1635" r="37" fill="#07101e" stroke="#806010" stroke-width="2"/> <text x="1724.5" y="1638" font-size="18" fill="white">17</text>
  <circle cx="1818"   cy="1635" r="37" fill="#07101e" stroke="#806010" stroke-width="2"/> <text x="1818"   y="1638" font-size="18" fill="white">18</text>
  <circle cx="1911.5" cy="1635" r="37" fill="#07101e" stroke="#806010" stroke-width="2"/> <text x="1911.5" y="1638" font-size="18" fill="white">19</text>
  <!-- milestone 20 -->
  <circle cx="2005"   cy="1635" r="40" fill="#0d1c08" stroke="#f5c842" stroke-width="3" filter="url(#glow-sm)"/> <text x="2005"   y="1638" font-size="18" fill="#f5c842">20</text>
  <!-- normal -->
  <circle cx="2098.5" cy="1635" r="37" fill="#07101e" stroke="#806010" stroke-width="2"/> <text x="2098.5" y="1638" font-size="18" fill="white">21</text>
  <circle cx="2192"   cy="1635" r="37" fill="#07101e" stroke="#806010" stroke-width="2"/> <text x="2192"   y="1638" font-size="18" fill="white">22</text>
  <circle cx="2285.5" cy="1635" r="37" fill="#07101e" stroke="#806010" stroke-width="2"/> <text x="2285.5" y="1638" font-size="18" fill="white">23</text>
  <circle cx="2379"   cy="1635" r="37" fill="#07101e" stroke="#806010" stroke-width="2"/> <text x="2379"   y="1638" font-size="18" fill="white">24</text>
  <!-- milestone 25 -->
  <circle cx="2472.5" cy="1635" r="40" fill="#0d1c08" stroke="#f5c842" stroke-width="3" filter="url(#glow-sm)"/> <text x="2472.5" y="1638" font-size="18" fill="#f5c842">25</text>
  <!-- normal -->
  <circle cx="2566"   cy="1635" r="37" fill="#07101e" stroke="#806010" stroke-width="2"/> <text x="2566"   y="1638" font-size="18" fill="white">26</text>
  <circle cx="2659.5" cy="1635" r="37" fill="#07101e" stroke="#806010" stroke-width="2"/> <text x="2659.5" y="1638" font-size="18" fill="white">27</text>
  <circle cx="2753"   cy="1635" r="37" fill="#07101e" stroke="#806010" stroke-width="2"/> <text x="2753"   y="1638" font-size="18" fill="white">28</text>
  <circle cx="2846.5" cy="1635" r="37" fill="#07101e" stroke="#806010" stroke-width="2"/> <text x="2846.5" y="1638" font-size="18" fill="white">29</text>
  <!-- end 30 -->
  <circle cx="2940"   cy="1635" r="42" fill="#101e04" stroke="#ffdd00" stroke-width="4" filter="url(#glow-sm)"/> <text x="2940"   y="1638" font-size="20" fill="#ffdd00">30</text>
</g>

<!-- ══════════════════════════════════════════════════════════════ -->
<!--  CREDIT TRACK  (21 spaces 0–20,  y=1820,  x: 150→2550, step 120) -->
<!-- ══════════════════════════════════════════════════════════════ -->
<g font-family="Arial,sans-serif" font-weight="bold" text-anchor="middle" dominant-baseline="middle">
  <!-- start marker at 0 -->
  <circle cx="150"  cy="1820" r="37" fill="#050f10" stroke="#1a5028" stroke-width="2"/> <text x="150"  y="1823" font-size="21" fill="white">0</text>
  <circle cx="270"  cy="1820" r="37" fill="#050f10" stroke="#1a5028" stroke-width="2"/> <text x="270"  y="1823" font-size="21" fill="white">1</text>
  <circle cx="390"  cy="1820" r="37" fill="#050f10" stroke="#1a5028" stroke-width="2"/> <text x="390"  y="1823" font-size="21" fill="white">2</text>
  <circle cx="510"  cy="1820" r="37" fill="#050f10" stroke="#1a5028" stroke-width="2"/> <text x="510"  y="1823" font-size="21" fill="white">3</text>
  <circle cx="630"  cy="1820" r="37" fill="#050f10" stroke="#1a5028" stroke-width="2"/> <text x="630"  y="1823" font-size="21" fill="white">4</text>
  <!-- milestone 5 (starting position) -->
  <circle cx="750"  cy="1820" r="40" fill="#0a1e10" stroke="#4ade80" stroke-width="3" filter="url(#glow-sm)"/> <text x="750"  y="1823" font-size="22" fill="#4ade80">5</text>
  <circle cx="870"  cy="1820" r="37" fill="#050f10" stroke="#1a5028" stroke-width="2"/> <text x="870"  y="1823" font-size="21" fill="white">6</text>
  <circle cx="990"  cy="1820" r="37" fill="#050f10" stroke="#1a5028" stroke-width="2"/> <text x="990"  y="1823" font-size="21" fill="white">7</text>
  <circle cx="1110" cy="1820" r="37" fill="#050f10" stroke="#1a5028" stroke-width="2"/> <text x="1110" y="1823" font-size="21" fill="white">8</text>
  <circle cx="1230" cy="1820" r="37" fill="#050f10" stroke="#1a5028" stroke-width="2"/> <text x="1230" y="1823" font-size="21" fill="white">9</text>
  <!-- milestone 10 -->
  <circle cx="1350" cy="1820" r="40" fill="#0a1e10" stroke="#4ade80" stroke-width="3" filter="url(#glow-sm)"/> <text x="1350" y="1823" font-size="18" fill="#4ade80">10</text>
  <circle cx="1470" cy="1820" r="37" fill="#050f10" stroke="#1a5028" stroke-width="2"/> <text x="1470" y="1823" font-size="18" fill="white">11</text>
  <circle cx="1590" cy="1820" r="37" fill="#050f10" stroke="#1a5028" stroke-width="2"/> <text x="1590" y="1823" font-size="18" fill="white">12</text>
  <circle cx="1710" cy="1820" r="37" fill="#050f10" stroke="#1a5028" stroke-width="2"/> <text x="1710" y="1823" font-size="18" fill="white">13</text>
  <circle cx="1830" cy="1820" r="37" fill="#050f10" stroke="#1a5028" stroke-width="2"/> <text x="1830" y="1823" font-size="18" fill="white">14</text>
  <!-- milestone 15 -->
  <circle cx="1950" cy="1820" r="40" fill="#0a1e10" stroke="#4ade80" stroke-width="3" filter="url(#glow-sm)"/> <text x="1950" y="1823" font-size="18" fill="#4ade80">15</text>
  <circle cx="2070" cy="1820" r="37" fill="#050f10" stroke="#1a5028" stroke-width="2"/> <text x="2070" y="1823" font-size="18" fill="white">16</text>
  <circle cx="2190" cy="1820" r="37" fill="#050f10" stroke="#1a5028" stroke-width="2"/> <text x="2190" y="1823" font-size="18" fill="white">17</text>
  <circle cx="2310" cy="1820" r="37" fill="#050f10" stroke="#1a5028" stroke-width="2"/> <text x="2310" y="1823" font-size="18" fill="white">18</text>
  <circle cx="2430" cy="1820" r="37" fill="#050f10" stroke="#1a5028" stroke-width="2"/> <text x="2430" y="1823" font-size="18" fill="white">19</text>
  <!-- end 20 -->
  <circle cx="2550" cy="1820" r="42" fill="#102010" stroke="#86efac" stroke-width="4" filter="url(#glow-sm)"/> <text x="2550" y="1823" font-size="20" fill="#86efac">20</text>
</g>

</svg>
