<?xml version="1.0" encoding="UTF-8"?>
<!--
  Space Agency Race — Game Board (Source SVG)
  3072 × 1920 px  |  Aspect 16:10  |  Maps to TTS Custom_Board scale {24, 1, 15}

  Pixel → TTS world-space formula (board center = world {0,1.5,-1}):
    world_X = px_x * 0.0078125 − 12
    world_Z = px_y * 0.0078125 − 8.5

  To export to PNG (required by TTS):
    inkscape with export-type=png, export-width=3072, export-height=1920, output board.png
  or
    magick board.svg resized to 3072x1920 as board.png
-->
<svg xmlns="http://www.w3.org/2000/svg" viewBox="0 0 3072 1920">
<defs>
  <filter id="glow" x="-40%" y="-40%" width="180%" height="180%">
    <feGaussianBlur stdDeviation="7" result="blur"/>
    <feMerge><feMergeNode in="blur"/><feMergeNode in="SourceGraphic"/></feMerge>
  </filter>
  <filter id="glow-sm" x="-30%" y="-30%" width="160%" height="160%">
    <feGaussianBlur stdDeviation="4" result="blur"/>
    <feMerge><feMergeNode in="blur"/><feMergeNode in="SourceGraphic"/></feMerge>
  </filter>
  <filter id="earth-glow" x="-100%" y="-100%" width="300%" height="300%">
    <feGaussianBlur stdDeviation="8" result="blur"/>
    <feColorMatrix type="matrix" values="0 0 0 0 0.25 0 0 0 0 0.70 0 0 0 0 0.90 0 0 0 0.6 0"/>
    <feMerge><feMergeNode in="blur"/><feMergeNode in="SourceGraphic"/></feMerge>
  </filter>
  <filter id="moon-glow" x="-120%" y="-120%" width="340%" height="340%">
    <feGaussianBlur stdDeviation="10" result="blur"/>
    <feColorMatrix type="matrix" values="0 0 0 0 0.75 0 0 0 0 0.78 0 0 0 0 0.82 0 0 0 0.75 0"/>
    <feMerge><feMergeNode in="blur"/><feMergeNode in="SourceGraphic"/></feMerge>
  </filter>
  <filter id="mars-glow" x="-100%" y="-100%" width="300%" height="300%">
    <feGaussianBlur stdDeviation="12" result="blur"/>
    <feColorMatrix type="matrix" values="0 0 0 0 0.95 0 0 0 0 0.35 0 0 0 0 0.20 0 0 0 0.85 0"/>
    <feMerge><feMergeNode in="blur"/><feMergeNode in="SourceGraphic"/></feMerge>
  </filter>
  <radialGradient id="earth-fill" cx="35%" cy="35%" r="70%">
    <stop offset="0%" stop-color="#5ee290"/>
    <stop offset="60%" stop-color="#22c55e"/>
    <stop offset="100%" stop-color="#0b4728"/>
  </radialGradient>
  <radialGradient id="moon-fill" cx="35%" cy="35%" r="70%">
    <stop offset="0%" stop-color="#d2d6dc"/>
    <stop offset="60%" stop-color="#9da3ad"/>
    <stop offset="100%" stop-color="#59606c"/>
  </radialGradient>
  <radialGradient id="mars-fill" cx="35%" cy="35%" r="70%">
    <stop offset="0%" stop-color="#ff8569"/>
    <stop offset="60%" stop-color="#ef4444"/>
    <stop offset="100%" stop-color="#64120d"/>
  </radialGradient>
  <radialGradient id="sun-haze" cx="0%" cy="55%" r="70%">
    <stop offset="0%" stop-color="#ffd277" stop-opacity="0.18"/>
    <stop offset="45%" stop-color="#fbbf24" stop-opacity="0.08"/>
    <stop offset="100%" stop-color="#fbbf24" stop-opacity="0"/>
  </radialGradient>
  <clipPath id="map-area">
    <rect x="0" y="0" width="3072" height="1530"/>
  </clipPath>

  <!-- planet detail clip paths -->
  <clipPath id="earth-clip"><circle cx="200" cy="1050" r="55"/></clipPath>
  <clipPath id="moon-clip"><circle cx="320" cy="240" r="42"/></clipPath>
  <clipPath id="mars-clip"><circle cx="2870" cy="1050" r="55"/></clipPath>

  <!-- ocean base for earth -->
  <radialGradient id="earth-ocean" cx="40%" cy="38%" r="65%">
    <stop offset="0%" stop-color="#3b8fd4"/>
    <stop offset="70%" stop-color="#1a5fa0"/>
    <stop offset="100%" stop-color="#0c2d54"/>
  </radialGradient>

  <!-- earth atmosphere band (rim on planet body) -->
  <radialGradient id="earth-atmo" cx="35%" cy="35%" r="55%">
    <stop offset="80%" stop-color="#60ccf8" stop-opacity="0"/>
    <stop offset="95%" stop-color="#60ccf8" stop-opacity="0.25"/>
    <stop offset="100%" stop-color="#3090d0" stop-opacity="0.45"/>
  </radialGradient>

  <!-- earth atmosphere zone: dense at surface (r=55), thins to nothing at sub-orbital boundary (r=185) -->
  <radialGradient id="earth-atmo-zone" cx="50%" cy="50%" r="50%">
    <!-- inside planet body (covered by planet art, but gives a base) -->
    <stop offset="24%" stop-color="#40a8e0" stop-opacity="0.35"/>
    <!-- planet edge (r≈55): densest visible atmosphere -->
    <stop offset="30%" stop-color="#50c0f0" stop-opacity="0.30"/>
    <!-- lower sub-orbital (r≈90): still visible haze -->
    <stop offset="48%" stop-color="#48b0e8" stop-opacity="0.18"/>
    <!-- mid sub-orbital (r≈120): thinning -->
    <stop offset="65%" stop-color="#40a0d8" stop-opacity="0.09"/>
    <!-- upper sub-orbital (r≈155): very thin -->
    <stop offset="84%" stop-color="#3890c0" stop-opacity="0.03"/>
    <!-- sub-orbital boundary (r=185): gone -->
    <stop offset="100%" stop-color="#3080b0" stop-opacity="0"/>
  </radialGradient>

  <!-- cloud blur -->
  <filter id="cloud-blur" x="-10%" y="-10%" width="120%" height="120%">
    <feGaussianBlur stdDeviation="2.5"/>
  </filter>

  <!-- mars atmosphere haze -->
  <radialGradient id="mars-atmo" cx="50%" cy="50%" r="50%">
    <stop offset="75%" stop-color="#ff6040" stop-opacity="0"/>
    <stop offset="92%" stop-color="#ff8050" stop-opacity="0.18"/>
    <stop offset="100%" stop-color="#cc4020" stop-opacity="0.35"/>
  </radialGradient>

  <!-- mars terrain base -->
  <radialGradient id="mars-terrain" cx="38%" cy="36%" r="68%">
    <stop offset="0%" stop-color="#e08050"/>
    <stop offset="50%" stop-color="#c04020"/>
    <stop offset="100%" stop-color="#501008"/>
  </radialGradient>

  <!-- moon terrain base -->
  <radialGradient id="moon-terrain" cx="36%" cy="34%" r="70%">
    <stop offset="0%" stop-color="#d8dce4"/>
    <stop offset="40%" stop-color="#b0b8c4"/>
    <stop offset="100%" stop-color="#505868"/>
  </radialGradient>
</defs>

<!-- Background -->
<rect width="3072" height="1920" fill="#050d1f"/>
<rect width="3072" height="1530" fill="url(#sun-haze)"/>

<!-- stars -->
<g fill="#ffffff">
  <circle cx="66" cy="42" r="1.4" opacity="0.74"/>
  <circle cx="212" cy="86" r="1.1" opacity="0.58"/>
  <circle cx="362" cy="24" r="1.0" opacity="0.66"/>
  <circle cx="522" cy="102" r="1.5" opacity="0.75"/>
  <circle cx="688" cy="38" r="1.0" opacity="0.54"/>
  <circle cx="836" cy="88" r="1.2" opacity="0.68"/>
  <circle cx="1018" cy="28" r="1.3" opacity="0.72"/>
  <circle cx="1178" cy="98" r="1.1" opacity="0.57"/>
  <circle cx="1328" cy="42" r="1.8" opacity="0.76"/>
  <circle cx="1488" cy="74" r="1.1" opacity="0.62"/>
  <circle cx="1672" cy="26" r="1.1" opacity="0.70"/>
  <circle cx="1834" cy="92" r="1.4" opacity="0.75"/>
  <circle cx="1998" cy="48" r="1.1" opacity="0.56"/>
  <circle cx="2142" cy="86" r="1.3" opacity="0.67"/>
  <circle cx="2310" cy="34" r="1.0" opacity="0.73"/>
  <circle cx="2478" cy="92" r="1.5" opacity="0.78"/>
  <circle cx="2646" cy="40" r="1.2" opacity="0.61"/>
  <circle cx="2824" cy="86" r="1.1" opacity="0.66"/>
  <circle cx="2994" cy="36" r="1.0" opacity="0.58"/>
  <circle cx="126" cy="226" r="1.0" opacity="0.58"/>
  <circle cx="346" cy="284" r="1.3" opacity="0.70"/>
  <circle cx="582" cy="240" r="1.0" opacity="0.56"/>
  <circle cx="806" cy="296" r="1.2" opacity="0.67"/>
  <circle cx="1010" cy="252" r="1.0" opacity="0.54"/>
  <circle cx="1230" cy="304" r="1.4" opacity="0.74"/>
  <circle cx="1486" cy="248" r="1.1" opacity="0.60"/>
  <circle cx="1714" cy="294" r="1.2" opacity="0.65"/>
  <circle cx="1932" cy="244" r="1.9" opacity="0.46"/>
  <circle cx="2148" cy="302" r="1.1" opacity="0.62"/>
  <circle cx="2386" cy="248" r="1.3" opacity="0.70"/>
  <circle cx="2624" cy="302" r="1.1" opacity="0.60"/>
  <circle cx="2862" cy="248" r="1.0" opacity="0.64"/>
  <circle cx="3022" cy="292" r="1.1" opacity="0.55"/>
  <circle cx="150" cy="640" r="1.0" opacity="0.55"/>
  <circle cx="330" cy="732" r="1.1" opacity="0.57"/>
  <circle cx="560" cy="670" r="1.0" opacity="0.50"/>
  <circle cx="754" cy="766" r="1.3" opacity="0.63"/>
  <circle cx="990" cy="704" r="1.0" opacity="0.52"/>
  <circle cx="1182" cy="786" r="1.2" opacity="0.59"/>
  <circle cx="1410" cy="704" r="1.1" opacity="0.56"/>
  <circle cx="1618" cy="780" r="1.2" opacity="0.60"/>
  <circle cx="1856" cy="708" r="1.0" opacity="0.53"/>
  <circle cx="2082" cy="770" r="1.1" opacity="0.57"/>
  <circle cx="2304" cy="706" r="1.0" opacity="0.51"/>
  <circle cx="2520" cy="772" r="1.2" opacity="0.60"/>
  <circle cx="2744" cy="712" r="1.1" opacity="0.56"/>
  <circle cx="2958" cy="784" r="1.0" opacity="0.52"/>
  <circle cx="122" cy="1252" r="1.0" opacity="0.48"/>
  <circle cx="336" cy="1410" r="1.3" opacity="0.56"/>
  <circle cx="558" cy="1326" r="1.0" opacity="0.49"/>
  <circle cx="756" cy="1440" r="1.1" opacity="0.55"/>
  <circle cx="970" cy="1338" r="1.2" opacity="0.58"/>
  <circle cx="1188" cy="1452" r="1.0" opacity="0.48"/>
  <circle cx="1412" cy="1330" r="1.0" opacity="0.54"/>
  <circle cx="1626" cy="1450" r="1.3" opacity="0.60"/>
  <circle cx="1842" cy="1338" r="1.0" opacity="0.50"/>
  <circle cx="2066" cy="1452" r="1.0" opacity="0.54"/>
  <circle cx="2288" cy="1332" r="1.3" opacity="0.59"/>
  <circle cx="2512" cy="1452" r="1.0" opacity="0.47"/>
  <circle cx="2734" cy="1330" r="1.2" opacity="0.56"/>
  <circle cx="2952" cy="1452" r="1.0" opacity="0.50"/>
</g>

<g clip-path="url(#map-area)">
  <!-- influence regions -->
  <circle cx="200" cy="1050" r="1100" fill="#4dd9f5" opacity="0.02"/>
  <circle cx="2870" cy="1050" r="900" fill="#e06030" opacity="0.02"/>

  <!-- Earth node spaces (full annular bands) -->
  <circle cx="200" cy="1050" r="120" fill="none" stroke="#9db8cc" stroke-width="130" opacity="0.22"/>

  <!-- Earth atmosphere zone overlay: fades from planet surface to sub-orbital boundary -->
  <circle cx="200" cy="1050" r="185" fill="url(#earth-atmo-zone)"/>
  <circle cx="200" cy="1050" r="270" fill="none" stroke="#9ddffc" stroke-width="170" opacity="0.18"/>
  <circle cx="200" cy="1050" r="462" fill="none" stroke="#f5c842" stroke-width="215" opacity="0.16"/>

  <!-- Moon node spaces (expanded again for token fit: two nodes + surface) -->
  <circle cx="320" cy="240" r="81" fill="none" stroke="#d2d9e4" stroke-width="78" opacity="0.30"/>
  <circle cx="320" cy="240" r="170" fill="none" stroke="#b8c7d9" stroke-width="100" opacity="0.26"/>

  <!-- Mars node spaces -->
  <circle cx="2870" cy="1050" r="120" fill="none" stroke="#ff9f7f" stroke-width="130" opacity="0.26"/>
  <circle cx="2870" cy="1050" r="270" fill="none" stroke="#f3a07d" stroke-width="170" opacity="0.18"/>
  <circle cx="2870" cy="1050" r="462" fill="none" stroke="#e06030" stroke-width="215" opacity="0.16"/>

  <!-- Boundary lines for readability -->
  <g fill="none" stroke="#aeb4be" stroke-width="2" opacity="0.7">
    <circle cx="200" cy="1050" r="185"/>
    <circle cx="200" cy="1050" r="355"/>
    <circle cx="200" cy="1050" r="570"/>
    <circle cx="200" cy="1050" r="1100"/>
    <circle cx="320" cy="240" r="120"/>
    <circle cx="320" cy="240" r="220"/>
    <circle cx="2870" cy="1050" r="185"/>
    <circle cx="2870" cy="1050" r="355"/>
    <circle cx="2870" cy="1050" r="570"/>
    <circle cx="2870" cy="1050" r="900"/>
  </g>

  <circle cx="200" cy="1050" r="570" fill="none" stroke="#f3cf5a" stroke-width="4" opacity="0.75"/>

  <!-- Solar orbit + transfer window node spaces -->
  <rect x="1380" y="0" width="310" height="1530" rx="24" fill="#ec4899" opacity="0.05"/>
  <line x1="1380" y1="0" x2="1380" y2="1530" stroke="#f5a6cf" stroke-width="4" opacity="0.8"/>
  <line x1="1535" y1="0" x2="1535" y2="1530" stroke="#aeb4be" stroke-width="4" opacity="0.8"/>
  <line x1="1690" y1="0" x2="1690" y2="1530" stroke="#f5a6cf" stroke-width="4" opacity="0.8"/>

  <!-- planet bodies -->

  <!-- ═══ EARTH ═══ -->
  <g filter="url(#earth-glow)">
    <!-- ocean base -->
    <circle cx="200" cy="1050" r="55" fill="url(#earth-ocean)"/>
    <!-- land masses (clipped to planet) -->
    <g clip-path="url(#earth-clip)" fill="#2d9e55">
      <!-- North America -->
      <ellipse cx="178" cy="1025" rx="18" ry="14" fill="#34a85a"/>
      <ellipse cx="172" cy="1018" rx="10" ry="7" fill="#3cb864"/>
      <!-- South America -->
      <ellipse cx="184" cy="1058" rx="9" ry="16" fill="#2e9a50"/>
      <ellipse cx="186" cy="1066" rx="7" ry="10" fill="#34a85a"/>
      <!-- Europe / Africa -->
      <ellipse cx="208" cy="1028" rx="7" ry="6" fill="#38b060"/>
      <ellipse cx="212" cy="1048" rx="10" ry="18" fill="#2d9050"/>
      <ellipse cx="210" cy="1040" rx="8" ry="12" fill="#34a85a"/>
      <!-- Asia -->
      <ellipse cx="228" cy="1022" rx="16" ry="11" fill="#30a456"/>
      <ellipse cx="236" cy="1030" rx="10" ry="8" fill="#38b060"/>
      <!-- Australia -->
      <ellipse cx="240" cy="1062" rx="8" ry="6" fill="#3cb864"/>
    </g>
    <!-- polar ice caps (clipped) -->
    <g clip-path="url(#earth-clip)">
      <ellipse cx="200" cy="997" rx="28" ry="6" fill="#e8f4f8" opacity="0.75"/>
      <ellipse cx="200" cy="1103" rx="22" ry="5" fill="#e0f0f4" opacity="0.65"/>
    </g>
    <!-- cloud layer (clipped, blurred) -->
    <g clip-path="url(#earth-clip)" filter="url(#cloud-blur)" opacity="0.55">
      <ellipse cx="182" cy="1030" rx="22" ry="5" fill="white" transform="rotate(-15 182 1030)"/>
      <ellipse cx="220" cy="1050" rx="18" ry="4" fill="white" transform="rotate(10 220 1050)"/>
      <ellipse cx="196" cy="1068" rx="25" ry="5" fill="white" transform="rotate(-8 196 1068)"/>
      <ellipse cx="210" cy="1020" rx="14" ry="3.5" fill="white" transform="rotate(20 210 1020)"/>
      <ellipse cx="175" cy="1052" rx="12" ry="3" fill="white" transform="rotate(-25 175 1052)"/>
      <ellipse cx="230" cy="1040" rx="10" ry="3" fill="white" transform="rotate(5 230 1040)"/>
    </g>
    <!-- atmosphere rim -->
    <circle cx="200" cy="1050" r="55" fill="url(#earth-atmo)"/>
    <!-- specular highlight -->
    <ellipse cx="182" cy="1028" rx="20" ry="18" fill="white" opacity="0.12"/>
  </g>

  <!-- ═══ MOON ═══ -->
  <g filter="url(#moon-glow)">
    <!-- terrain base -->
    <circle cx="320" cy="240" r="42" fill="url(#moon-terrain)"/>
    <!-- maria (dark patches) clipped -->
    <g clip-path="url(#moon-clip)" opacity="0.5">
      <ellipse cx="310" cy="230" rx="14" ry="12" fill="#6a7080"/>
      <ellipse cx="330" cy="225" rx="8" ry="10" fill="#707888"/>
      <ellipse cx="325" cy="248" rx="12" ry="8" fill="#68707c"/>
      <ellipse cx="340" cy="238" rx="6" ry="7" fill="#727a88"/>
      <ellipse cx="305" cy="252" rx="9" ry="6" fill="#6e7684"/>
    </g>
    <!-- craters -->
    <g clip-path="url(#moon-clip)">
      <!-- large craters with rims -->
      <circle cx="312" cy="234" r="6" fill="#8890a0" opacity="0.4"/>
      <circle cx="312" cy="234" r="6" fill="none" stroke="#c0c8d4" stroke-width="0.8" opacity="0.5"/>
      <circle cx="332" cy="250" r="5" fill="#8088a0" opacity="0.35"/>
      <circle cx="332" cy="250" r="5" fill="none" stroke="#bcc4d0" stroke-width="0.7" opacity="0.45"/>
      <!-- Tycho-style bright ray crater -->
      <circle cx="322" cy="262" r="4" fill="#c8ccd4" opacity="0.6"/>
      <circle cx="322" cy="262" r="4" fill="none" stroke="#e0e4ec" stroke-width="1" opacity="0.7"/>
      <!-- rays from Tycho -->
      <line x1="322" y1="262" x2="310" y2="272" stroke="#d0d4dc" stroke-width="0.6" opacity="0.3"/>
      <line x1="322" y1="262" x2="334" y2="270" stroke="#d0d4dc" stroke-width="0.6" opacity="0.25"/>
      <line x1="322" y1="262" x2="318" y2="275" stroke="#d0d4dc" stroke-width="0.5" opacity="0.25"/>
      <line x1="322" y1="262" x2="330" y2="258" stroke="#d0d4dc" stroke-width="0.5" opacity="0.2"/>
      <!-- small craters -->
      <circle cx="305" cy="245" r="3" fill="#8890a0" opacity="0.3"/>
      <circle cx="305" cy="245" r="3" fill="none" stroke="#b8c0cc" stroke-width="0.5" opacity="0.4"/>
      <circle cx="338" cy="228" r="2.5" fill="#8890a0" opacity="0.3"/>
      <circle cx="338" cy="228" r="2.5" fill="none" stroke="#b8c0cc" stroke-width="0.5" opacity="0.35"/>
      <circle cx="318" cy="218" r="2" fill="#9098a8" opacity="0.3"/>
      <circle cx="328" cy="240" r="2" fill="#8890a0" opacity="0.25"/>
      <circle cx="342" cy="248" r="1.8" fill="#8890a0" opacity="0.25"/>
      <circle cx="300" cy="238" r="1.5" fill="#9098a8" opacity="0.2"/>
      <circle cx="326" cy="230" r="1.5" fill="#9098a8" opacity="0.2"/>
    </g>
    <!-- soil texture (subtle noise) -->
    <g clip-path="url(#moon-clip)" opacity="0.15">
      <circle cx="308" cy="222" r="0.8" fill="#a0a8b4"/>
      <circle cx="315" cy="255" r="0.7" fill="#98a0b0"/>
      <circle cx="335" cy="235" r="0.9" fill="#a0a8b4"/>
      <circle cx="320" cy="245" r="0.6" fill="#98a0b0"/>
      <circle cx="340" cy="255" r="0.7" fill="#a0a8b4"/>
      <circle cx="302" cy="248" r="0.8" fill="#98a0b0"/>
      <circle cx="328" cy="220" r="0.6" fill="#a0a8b4"/>
      <circle cx="312" cy="260" r="0.7" fill="#98a0b0"/>
    </g>
    <!-- specular highlight -->
    <ellipse cx="310" cy="224" rx="16" ry="14" fill="white" opacity="0.10"/>
  </g>

  <!-- ═══ MARS ═══ -->
  <g filter="url(#mars-glow)">
    <!-- terrain base -->
    <circle cx="2870" cy="1050" r="55" fill="url(#mars-terrain)"/>
    <!-- terrain features (clipped) -->
    <g clip-path="url(#mars-clip)">
      <!-- dark highland regions -->
      <ellipse cx="2858" cy="1045" rx="18" ry="12" fill="#903018" opacity="0.4"/>
      <ellipse cx="2882" cy="1060" rx="14" ry="10" fill="#983820" opacity="0.35"/>
      <ellipse cx="2860" cy="1065" rx="10" ry="8" fill="#882c14" opacity="0.35"/>
      <!-- Valles Marineris (dark canyon slash) -->
      <line x1="2845" y1="1046" x2="2885" y2="1050" stroke="#601808" stroke-width="2.5" opacity="0.5" stroke-linecap="round"/>
      <line x1="2848" y1="1048" x2="2882" y2="1051" stroke="#501005" stroke-width="1.2" opacity="0.35" stroke-linecap="round"/>
      <!-- Olympus Mons (lighter circular feature, upper left quadrant) -->
      <circle cx="2850" cy="1030" r="8" fill="#d08050" opacity="0.35"/>
      <circle cx="2850" cy="1030" r="4" fill="#d89060" opacity="0.25"/>
      <circle cx="2850" cy="1030" r="1.5" fill="#a06030" opacity="0.3"/>
      <!-- smaller volcanoes (Tharsis region) -->
      <circle cx="2842" cy="1038" r="3" fill="#c87848" opacity="0.25"/>
      <circle cx="2846" cy="1042" r="2.5" fill="#c87848" opacity="0.2"/>
      <circle cx="2856" cy="1036" r="2.8" fill="#c87848" opacity="0.22"/>
      <!-- southern highlands (rougher, darker terrain) -->
      <ellipse cx="2870" cy="1075" rx="30" ry="12" fill="#782010" opacity="0.25"/>
      <!-- northern lowlands (slightly smoother, lighter) -->
      <ellipse cx="2870" cy="1025" rx="28" ry="10" fill="#d08858" opacity="0.15"/>
    </g>
    <!-- polar ice caps (clipped) -->
    <g clip-path="url(#mars-clip)">
      <!-- north polar cap -->
      <ellipse cx="2870" cy="997" rx="20" ry="5" fill="#f0e8e0" opacity="0.7"/>
      <ellipse cx="2870" cy="999" rx="16" ry="3.5" fill="#ffffff" opacity="0.5"/>
      <!-- south polar cap (smaller) -->
      <ellipse cx="2870" cy="1103" rx="14" ry="4" fill="#f0e8e0" opacity="0.6"/>
      <ellipse cx="2870" cy="1102" rx="10" ry="2.5" fill="#ffffff" opacity="0.4"/>
    </g>
    <!-- thin atmosphere rim -->
    <circle cx="2870" cy="1050" r="55" fill="url(#mars-atmo)"/>
    <!-- dust haze (very subtle warm band) -->
    <g clip-path="url(#mars-clip)">
      <ellipse cx="2870" cy="1055" rx="55" ry="8" fill="#e08040" opacity="0.08"/>
    </g>
    <!-- specular highlight -->
    <ellipse cx="2852" cy="1028" rx="18" ry="16" fill="white" opacity="0.08"/>
  </g>

  <!-- labels -->
  <text x="200" y="1056" text-anchor="middle" font-family="Arial,sans-serif" font-size="20" font-weight="bold" fill="#ecfff4">EARTH</text>
  <text x="320" y="246" text-anchor="middle" font-family="Arial,sans-serif" font-size="12" font-weight="bold" fill="#f4f7fb">MOON</text>
  <text x="2870" y="1056" text-anchor="middle" font-family="Arial,sans-serif" font-size="20" font-weight="bold" fill="#fff1eb">MARS</text>

  <text x="260" y="1058" font-family="Arial,sans-serif" font-size="17" fill="#d8fff1" font-weight="bold">SUB-ORBITAL</text>
  <text x="445" y="1058" font-family="Arial,sans-serif" font-size="19" fill="#d8f2ff" font-weight="bold">LEO</text>
  <text x="602" y="1058" font-family="Arial,sans-serif" font-size="19" fill="#f7de84" font-weight="bold">HIGH ORBIT</text>

  <text x="320" y="325" text-anchor="middle" font-family="Arial,sans-serif" font-size="17" fill="#eef4fb" font-weight="bold">SUB-ORBITAL</text>
  <text x="320" y="400" text-anchor="middle" font-family="Arial,sans-serif" font-size="17" fill="#e7eff8" font-weight="bold">MOON ORBIT</text>

  <text x="2810" y="1058" text-anchor="end" font-family="Arial,sans-serif" font-size="17" fill="#ffe6db" font-weight="bold">SUB-ORBITAL</text>
  <text x="2620" y="1058" text-anchor="end" font-family="Arial,sans-serif" font-size="17" fill="#ffe6db" font-weight="bold">LMO</text>
  <text x="2430" y="1058" text-anchor="end" font-family="Arial,sans-serif" font-size="19" fill="#ffd4c0" font-weight="bold">HMO</text>
  <text x="2240" y="1058" text-anchor="end" font-family="Arial,sans-serif" font-size="19" fill="#ffc6ae" font-weight="bold">MARS INFLUENCE ZONE</text>

  <text x="1225" y="208" text-anchor="middle" font-family="Arial,sans-serif" font-size="24" fill="#ffe2b5" font-weight="bold">SOLAR ORBIT</text>
  <text x="1225" y="238" text-anchor="middle" font-family="Arial,sans-serif" font-size="14" fill="#ffe2b5" opacity="0.88" font-weight="bold">EARTH</text>
  <text x="1535" y="954" text-anchor="middle" font-family="Arial,sans-serif" font-size="24" fill="#ffd3ea" font-weight="bold" letter-spacing="1">TRANSFER WINDOW</text>
  <text x="1535" y="995" text-anchor="middle" font-family="Arial,sans-serif" font-size="16" fill="#ffd3ea" opacity="0.85">Event: may cost 0 movement</text>
  <text x="1850" y="208" text-anchor="middle" font-family="Arial,sans-serif" font-size="22" fill="#ffe2b5" font-weight="bold">SOLAR ORBIT</text>
  <text x="1850" y="238" text-anchor="middle" font-family="Arial,sans-serif" font-size="14" fill="#ffe2b5" opacity="0.88" font-weight="bold">MARS</text>
  <text x="1140" y="1058" text-anchor="end" font-family="Arial,sans-serif" font-size="20" fill="#d8f2ff" font-weight="bold">EARTH INFLUENCE ZONE</text>

  <text x="400" y="1454" font-family="Arial,sans-serif" font-size="38" fill="#74f8cd" opacity="0.28" font-weight="bold" letter-spacing="4">EARTH SYSTEM</text>
  <text x="418" y="208" font-family="Arial,sans-serif" font-size="32" fill="#b9cae0" opacity="0.32" font-weight="bold" letter-spacing="3">LUNAR SYSTEM</text>
  <text x="2258" y="1454" font-family="Arial,sans-serif" font-size="38" fill="#ff9f7f" opacity="0.30" font-weight="bold" letter-spacing="4">MARS SYSTEM</text>
</g>

<!-- track section panels -->
<line x1="0" y1="1530" x2="3072" y2="1530" stroke="#273555" stroke-width="2" stroke-dasharray="6,4"/>
<rect x="0" y="1530" width="3072" height="210" fill="#06101e"/>
<line x1="0" y1="1740" x2="3072" y2="1740" stroke="#1a3018" stroke-width="1" stroke-dasharray="6,4"/>
<rect x="0" y="1740" width="3072" height="180" fill="#050e14"/>

<!-- track section labels -->
<text x="52" y="1688" font-family="Arial,sans-serif" font-size="28" fill="#f5c842" font-weight="bold" letter-spacing="1">VP</text>
<text x="52" y="1870" font-family="Arial,sans-serif" font-size="28" fill="#4ade80" font-weight="bold" letter-spacing="1">CR</text>
<text x="2710" y="1870" font-family="Arial,sans-serif" font-size="18" fill="#4ade80" opacity="0.70">start: 5 ▶</text>

<!-- title panel -->
<g>
  <!-- outer glow halo -->
  <rect x="1076" y="12" width="920" height="120" rx="6" ry="6"
        fill="none" stroke="#f5c842" stroke-width="1.5" opacity="0.15"
        filter="url(#glow)"/>

  <!-- dark panel background -->
  <rect x="1086" y="16" width="900" height="112" rx="5" ry="5"
        fill="#06101e" opacity="0.92"/>

  <!-- outer gold border -->
  <rect x="1086" y="16" width="900" height="112" rx="5" ry="5"
        fill="none" stroke="#806010" stroke-width="2.5"/>

  <!-- inner inset line -->
  <rect x="1094" y="24" width="884" height="96" rx="3" ry="3"
        fill="none" stroke="#f5c842" stroke-width="0.8" opacity="0.45"/>

  <!-- corner accents — top-left -->
  <line x1="1086" y1="36" x2="1100" y2="36" stroke="#f5c842" stroke-width="1.5" opacity="0.7"/>
  <line x1="1106" y1="16" x2="1106" y2="30" stroke="#f5c842" stroke-width="1.5" opacity="0.7"/>
  <!-- corner accents — top-right -->
  <line x1="1972" y1="36" x2="1986" y2="36" stroke="#f5c842" stroke-width="1.5" opacity="0.7"/>
  <line x1="1966" y1="16" x2="1966" y2="30" stroke="#f5c842" stroke-width="1.5" opacity="0.7"/>
  <!-- corner accents — bottom-left -->
  <line x1="1086" y1="108" x2="1100" y2="108" stroke="#f5c842" stroke-width="1.5" opacity="0.7"/>
  <line x1="1106" y1="114" x2="1106" y2="128" stroke="#f5c842" stroke-width="1.5" opacity="0.7"/>
  <!-- corner accents — bottom-right -->
  <line x1="1972" y1="108" x2="1986" y2="108" stroke="#f5c842" stroke-width="1.5" opacity="0.7"/>
  <line x1="1966" y1="114" x2="1966" y2="128" stroke="#f5c842" stroke-width="1.5" opacity="0.7"/>

  <!-- horizontal rule between title and subtitle -->
  <line x1="1320" y1="83" x2="1752" y2="83"
        stroke="#806010" stroke-width="1" opacity="0.5"/>
  <!-- diamond centre mark -->
  <rect x="1532" y="79" width="8" height="8" rx="1"
        fill="#f5c842" opacity="0.55"
        transform="rotate(45 1536 83)"/>

  <!-- side wing lines — left -->
  <line x1="1100" y1="72" x2="1140" y2="72" stroke="#f5c842" stroke-width="1" opacity="0.35"/>
  <!-- side wing lines — right -->
  <line x1="1932" y1="72" x2="1972" y2="72" stroke="#f5c842" stroke-width="1" opacity="0.35"/>
</g>

<!-- title text -->
<text x="1536" y="68" text-anchor="middle"
      font-family="Arial,sans-serif" font-size="50" font-weight="bold"
      fill="#f5c842" letter-spacing="6">SPACE AGENCY RACE</text>
<text x="1536" y="108" text-anchor="middle"
      font-family="Arial,sans-serif" font-size="22"
      fill="#8a9ab8" letter-spacing="3">ORBITAL MAP</text>

<!-- ══════════════════════════════════════════════════════════════ -->
<!--  VP TRACK  (31 spaces 0–30,  y=1635,  x: 135→2940, step 93.5) -->
<!-- ══════════════════════════════════════════════════════════════ -->
<g font-family="Arial,sans-serif" font-weight="bold" text-anchor="middle" dominant-baseline="middle">
  <!-- normal -->
  <circle cx="135"   cy="1635" r="37" fill="#07101e" stroke="#806010" stroke-width="2"/> <text x="135"   y="1638" font-size="21" fill="white">0</text>
  <circle cx="228.5" cy="1635" r="37" fill="#07101e" stroke="#806010" stroke-width="2"/> <text x="228.5" y="1638" font-size="21" fill="white">1</text>
  <circle cx="322"   cy="1635" r="37" fill="#07101e" stroke="#806010" stroke-width="2"/> <text x="322"   y="1638" font-size="21" fill="white">2</text>
  <circle cx="415.5" cy="1635" r="37" fill="#07101e" stroke="#806010" stroke-width="2"/> <text x="415.5" y="1638" font-size="21" fill="white">3</text>
  <circle cx="509"   cy="1635" r="37" fill="#07101e" stroke="#806010" stroke-width="2"/> <text x="509"   y="1638" font-size="21" fill="white">4</text>
  <!-- milestone 5 -->
  <circle cx="602.5" cy="1635" r="40" fill="#0d1c08" stroke="#f5c842" stroke-width="3" filter="url(#glow-sm)"/> <text x="602.5" y="1638" font-size="22" fill="#f5c842">5</text>
  <!-- normal -->
  <circle cx="696"   cy="1635" r="37" fill="#07101e" stroke="#806010" stroke-width="2"/> <text x="696"   y="1638" font-size="21" fill="white">6</text>
  <circle cx="789.5" cy="1635" r="37" fill="#07101e" stroke="#806010" stroke-width="2"/> <text x="789.5" y="1638" font-size="21" fill="white">7</text>
  <circle cx="883"   cy="1635" r="37" fill="#07101e" stroke="#806010" stroke-width="2"/> <text x="883"   y="1638" font-size="21" fill="white">8</text>
  <circle cx="976.5" cy="1635" r="37" fill="#07101e" stroke="#806010" stroke-width="2"/> <text x="976.5" y="1638" font-size="21" fill="white">9</text>
  <!-- milestone 10 -->
  <circle cx="1070"  cy="1635" r="40" fill="#0d1c08" stroke="#f5c842" stroke-width="3" filter="url(#glow-sm)"/> <text x="1070"  y="1638" font-size="18" fill="#f5c842">10</text>
  <!-- normal -->
  <circle cx="1163.5" cy="1635" r="37" fill="#07101e" stroke="#806010" stroke-width="2"/> <text x="1163.5" y="1638" font-size="18" fill="white">11</text>
  <circle cx="1257"   cy="1635" r="37" fill="#07101e" stroke="#806010" stroke-width="2"/> <text x="1257"   y="1638" font-size="18" fill="white">12</text>
  <circle cx="1350.5" cy="1635" r="37" fill="#07101e" stroke="#806010" stroke-width="2"/> <text x="1350.5" y="1638" font-size="18" fill="white">13</text>
  <circle cx="1444"   cy="1635" r="37" fill="#07101e" stroke="#806010" stroke-width="2"/> <text x="1444"   y="1638" font-size="18" fill="white">14</text>
  <!-- milestone 15 -->
  <circle cx="1537.5" cy="1635" r="40" fill="#0d1c08" stroke="#f5c842" stroke-width="3" filter="url(#glow-sm)"/> <text x="1537.5" y="1638" font-size="18" fill="#f5c842">15</text>
  <!-- normal -->
  <circle cx="1631"   cy="1635" r="37" fill="#07101e" stroke="#806010" stroke-width="2"/> <text x="1631"   y="1638" font-size="18" fill="white">16</text>
  <circle cx="1724.5" cy="1635" r="37" fill="#07101e" stroke="#806010" stroke-width="2"/> <text x="1724.5" y="1638" font-size="18" fill="white">17</text>
  <circle cx="1818"   cy="1635" r="37" fill="#07101e" stroke="#806010" stroke-width="2"/> <text x="1818"   y="1638" font-size="18" fill="white">18</text>
  <circle cx="1911.5" cy="1635" r="37" fill="#07101e" stroke="#806010" stroke-width="2"/> <text x="1911.5" y="1638" font-size="18" fill="white">19</text>
  <!-- milestone 20 -->
  <circle cx="2005"   cy="1635" r="40" fill="#0d1c08" stroke="#f5c842" stroke-width="3" filter="url(#glow-sm)"/> <text x="2005"   y="1638" font-size="18" fill="#f5c842">20</text>
  <!-- normal -->
  <circle cx="2098.5" cy="1635" r="37" fill="#07101e" stroke="#806010" stroke-width="2"/> <text x="2098.5" y="1638" font-size="18" fill="white">21</text>
  <circle cx="2192"   cy="1635" r="37" fill="#07101e" stroke="#806010" stroke-width="2"/> <text x="2192"   y="1638" font-size="18" fill="white">22</text>
  <circle cx="2285.5" cy="1635" r="37" fill="#07101e" stroke="#806010" stroke-width="2"/> <text x="2285.5" y="1638" font-size="18" fill="white">23</text>
  <circle cx="2379"   cy="1635" r="37" fill="#07101e" stroke="#806010" stroke-width="2"/> <text x="2379"   y="1638" font-size="18" fill="white">24</text>
  <!-- milestone 25 -->
  <circle cx="2472.5" cy="1635" r="40" fill="#0d1c08" stroke="#f5c842" stroke-width="3" filter="url(#glow-sm)"/> <text x="2472.5" y="1638" font-size="18" fill="#f5c842">25</text>
  <!-- normal -->
  <circle cx="2566"   cy="1635" r="37" fill="#07101e" stroke="#806010" stroke-width="2"/> <text x="2566"   y="1638" font-size="18" fill="white">26</text>
  <circle cx="2659.5" cy="1635" r="37" fill="#07101e" stroke="#806010" stroke-width="2"/> <text x="2659.5" y="1638" font-size="18" fill="white">27</text>
  <circle cx="2753"   cy="1635" r="37" fill="#07101e" stroke="#806010" stroke-width="2"/> <text x="2753"   y="1638" font-size="18" fill="white">28</text>
  <circle cx="2846.5" cy="1635" r="37" fill="#07101e" stroke="#806010" stroke-width="2"/> <text x="2846.5" y="1638" font-size="18" fill="white">29</text>
  <!-- end 30 -->
  <circle cx="2940"   cy="1635" r="42" fill="#101e04" stroke="#ffdd00" stroke-width="4" filter="url(#glow-sm)"/> <text x="2940"   y="1638" font-size="20" fill="#ffdd00">30</text>
</g>

<!-- ══════════════════════════════════════════════════════════════ -->
<!--  CREDIT TRACK  (21 spaces 0–20,  y=1820,  x: 150→2550, step 120) -->
<!-- ══════════════════════════════════════════════════════════════ -->
<g font-family="Arial,sans-serif" font-weight="bold" text-anchor="middle" dominant-baseline="middle">
  <!-- start marker at 0 -->
  <circle cx="150"  cy="1820" r="37" fill="#050f10" stroke="#1a5028" stroke-width="2"/> <text x="150"  y="1823" font-size="21" fill="white">0</text>
  <circle cx="270"  cy="1820" r="37" fill="#050f10" stroke="#1a5028" stroke-width="2"/> <text x="270"  y="1823" font-size="21" fill="white">1</text>
  <circle cx="390"  cy="1820" r="37" fill="#050f10" stroke="#1a5028" stroke-width="2"/> <text x="390"  y="1823" font-size="21" fill="white">2</text>
  <circle cx="510"  cy="1820" r="37" fill="#050f10" stroke="#1a5028" stroke-width="2"/> <text x="510"  y="1823" font-size="21" fill="white">3</text>
  <circle cx="630"  cy="1820" r="37" fill="#050f10" stroke="#1a5028" stroke-width="2"/> <text x="630"  y="1823" font-size="21" fill="white">4</text>
  <!-- milestone 5 (starting position) -->
  <circle cx="750"  cy="1820" r="40" fill="#0a1e10" stroke="#4ade80" stroke-width="3" filter="url(#glow-sm)"/> <text x="750"  y="1823" font-size="22" fill="#4ade80">5</text>
  <circle cx="870"  cy="1820" r="37" fill="#050f10" stroke="#1a5028" stroke-width="2"/> <text x="870"  y="1823" font-size="21" fill="white">6</text>
  <circle cx="990"  cy="1820" r="37" fill="#050f10" stroke="#1a5028" stroke-width="2"/> <text x="990"  y="1823" font-size="21" fill="white">7</text>
  <circle cx="1110" cy="1820" r="37" fill="#050f10" stroke="#1a5028" stroke-width="2"/> <text x="1110" y="1823" font-size="21" fill="white">8</text>
  <circle cx="1230" cy="1820" r="37" fill="#050f10" stroke="#1a5028" stroke-width="2"/> <text x="1230" y="1823" font-size="21" fill="white">9</text>
  <!-- milestone 10 -->
  <circle cx="1350" cy="1820" r="40" fill="#0a1e10" stroke="#4ade80" stroke-width="3" filter="url(#glow-sm)"/> <text x="1350" y="1823" font-size="18" fill="#4ade80">10</text>
  <circle cx="1470" cy="1820" r="37" fill="#050f10" stroke="#1a5028" stroke-width="2"/> <text x="1470" y="1823" font-size="18" fill="white">11</text>
  <circle cx="1590" cy="1820" r="37" fill="#050f10" stroke="#1a5028" stroke-width="2"/> <text x="1590" y="1823" font-size="18" fill="white">12</text>
  <circle cx="1710" cy="1820" r="37" fill="#050f10" stroke="#1a5028" stroke-width="2"/> <text x="1710" y="1823" font-size="18" fill="white">13</text>
  <circle cx="1830" cy="1820" r="37" fill="#050f10" stroke="#1a5028" stroke-width="2"/> <text x="1830" y="1823" font-size="18" fill="white">14</text>
  <!-- milestone 15 -->
  <circle cx="1950" cy="1820" r="40" fill="#0a1e10" stroke="#4ade80" stroke-width="3" filter="url(#glow-sm)"/> <text x="1950" y="1823" font-size="18" fill="#4ade80">15</text>
  <circle cx="2070" cy="1820" r="37" fill="#050f10" stroke="#1a5028" stroke-width="2"/> <text x="2070" y="1823" font-size="18" fill="white">16</text>
  <circle cx="2190" cy="1820" r="37" fill="#050f10" stroke="#1a5028" stroke-width="2"/> <text x="2190" y="1823" font-size="18" fill="white">17</text>
  <circle cx="2310" cy="1820" r="37" fill="#050f10" stroke="#1a5028" stroke-width="2"/> <text x="2310" y="1823" font-size="18" fill="white">18</text>
  <circle cx="2430" cy="1820" r="37" fill="#050f10" stroke="#1a5028" stroke-width="2"/> <text x="2430" y="1823" font-size="18" fill="white">19</text>
  <!-- end 20 -->
  <circle cx="2550" cy="1820" r="42" fill="#102010" stroke="#86efac" stroke-width="4" filter="url(#glow-sm)"/> <text x="2550" y="1823" font-size="20" fill="#86efac">20</text>
</g>

</svg>
