<svg xmlns="http://www.w3.org/2000/svg" width="128" height="128" viewBox="0 0 128 128">
  <defs>
    <linearGradient id="engineShell" x1="0" x2="0" y1="0" y2="1">
      <stop offset="0%" stop-color="#9aa8b8" />
      <stop offset="100%" stop-color="#445363" />
    </linearGradient>
    <linearGradient id="engineFlame" x1="0" x2="0" y1="0" y2="1">
      <stop offset="0%" stop-color="#ffe18f" />
      <stop offset="58%" stop-color="#ff9f1c" />
      <stop offset="100%" stop-color="#e55a00" />
    </linearGradient>
  </defs>

  <g stroke="#213547" stroke-width="4" stroke-linecap="round" stroke-linejoin="round">
    <ellipse cx="64" cy="25" rx="15" ry="8" fill="#d7e2eb" />
    <path d="M50 29 H78 L88 46 L79 81 H49 L40 46 Z" fill="url(#engineShell)" />
    <path d="M56 37 H72 L77 67 H51 Z" fill="#0c1623" />
    <path d="M49 81 C53 88 58 92 64 92 C70 92 75 88 79 81" fill="#546577" />
    <ellipse cx="64" cy="81" rx="19" ry="8" fill="#1a2633" />
    <path d="M64 85 C55 96 50 108 64 119 C78 108 73 96 64 85 Z" fill="url(#engineFlame)" stroke="#d86200" />
    <path d="M64 90 C59 97 57 103 64 111 C71 103 69 97 64 90 Z" fill="#fff4c7" stroke="none" />
    <path d="M46 44 L36 39" fill="none" />
    <path d="M82 44 L92 39" fill="none" />
  </g>
</svg>