<svg xmlns="http://www.w3.org/2000/svg" width="128" height="128" viewBox="0 0 128 128">
  <defs>
    <linearGradient id="payloadBody" x1="0" x2="0" y1="0" y2="1">
      <stop offset="0%" stop-color="#ffd98f" />
      <stop offset="100%" stop-color="#f09d3c" />
    </linearGradient>
    <linearGradient id="payloadPanel" x1="0" x2="1" y1="0" y2="0">
      <stop offset="0%" stop-color="#7cd8ff" />
      <stop offset="100%" stop-color="#2d86d3" />
    </linearGradient>
  </defs>

  <g stroke="#213547" stroke-width="4" stroke-linecap="round" stroke-linejoin="round">
    <rect x="14" y="46" width="28" height="36" rx="4" fill="url(#payloadPanel)" />
    <rect x="86" y="46" width="28" height="36" rx="4" fill="url(#payloadPanel)" />
    <path d="M42 64 H50" fill="none" />
    <path d="M78 64 H86" fill="none" />
    <rect x="46" y="38" width="36" height="44" rx="8" fill="url(#payloadBody)" />
    <circle cx="64" cy="60" r="10" fill="#fff5da" />
    <circle cx="64" cy="60" r="5" fill="#4d7aa8" />
    <path d="M70 38 V28" fill="none" />
    <circle cx="70" cy="22" r="5" fill="#fff4ce" />
    <path d="M52 88 L48 104 H80 L76 88 Z" fill="#8ea6ba" />
    <path d="M25 56 V72 M31 56 V72 M97 56 V72 M103 56 V72" fill="none" opacity="0.45" />
  </g>
</svg>