<svg xmlns="http://www.w3.org/2000/svg" width="128" height="128" viewBox="0 0 128 128">
  <defs>
    <linearGradient id="techChip" x1="0" x2="1" y1="0" y2="1">
      <stop offset="0%" stop-color="#ffd779" />
      <stop offset="100%" stop-color="#ff9f4a" />
    </linearGradient>
  </defs>

  <g stroke="#213547" stroke-width="4" stroke-linecap="round" stroke-linejoin="round">
    <rect x="36" y="36" width="56" height="56" rx="10" fill="url(#techChip)" />
    <rect x="50" y="50" width="28" height="28" rx="6" fill="#2b5c93" />
    <path d="M44 24 V36 M58 24 V36 M70 24 V36 M84 24 V36" fill="none" />
    <path d="M44 92 V104 M58 92 V104 M70 92 V104 M84 92 V104" fill="none" />
    <path d="M24 44 H36 M24 58 H36 M24 70 H36 M24 84 H36" fill="none" />
    <path d="M92 44 H104 M92 58 H104 M92 70 H104 M92 84 H104" fill="none" />
    <path d="M64 44 V30" fill="none" stroke="#7cf0ff" />
    <circle cx="64" cy="26" r="6" fill="#7cf0ff" stroke="#2caac0" />
  </g>
</svg>